<svg xmlns="http://www.w3.org/2000/svg" width="2806.818" height="897.559" viewBox="0 0 2806.818 897.559">
  <defs>
    <style>
      .cls-1 {
        opacity: 0.3;
      }

      .cls-14, .cls-15, .cls-2, .cls-20 {
        fill: none;
      }

      .cls-2, .cls-4 {
        stroke: #898989;
        stroke-width: 6px;
        stroke-dasharray: 0.001 12;
      }

      .cls-14, .cls-15, .cls-2, .cls-20, .cls-22, .cls-4 {
        stroke-linecap: round;
      }

      .cls-10, .cls-11, .cls-12, .cls-13, .cls-15, .cls-16, .cls-2, .cls-21, .cls-23, .cls-3, .cls-6, .cls-8, .cls-9 {
        fill-rule: evenodd;
      }

      .cls-21, .cls-3, .cls-5 {
        fill: #2b6091;
      }

      .cls-4 {
        fill: #bfcfde;
      }

      .cls-17, .cls-18, .cls-23, .cls-6, .cls-9 {
        fill: #fff;
      }

      .cls-7 {
        fill: #e1e1e1;
      }

      .cls-19, .cls-8 {
        fill: #2c8511;
      }

      .cls-10, .cls-16, .cls-19, .cls-8 {
        opacity: 0.5;
      }

      .cls-15, .cls-17, .cls-20, .cls-22, .cls-9 {
        stroke: #2b6091;
      }

      .cls-15, .cls-9 {
        stroke-width: 10px;
      }

      .cls-10 {
        fill: #153e65;
      }

      .cls-11, .cls-24 {
        fill: #95afc8;
      }

      .cls-12 {
        fill: #0c71b9;
      }

      .cls-13 {
        fill: #bfdab7;
      }

      .cls-14, .cls-18 {
        stroke: #000;
        stroke-width: 1px;
      }

      .cls-14 {
        stroke-dasharray: 0.001 2;
      }

      .cls-15 {
        stroke-dasharray: 0.001 20;
      }

      .cls-16 {
        fill: #4d4d4d;
      }

      .cls-17 {
        stroke-width: 7px;
      }

      .cls-20, .cls-22 {
        stroke-width: 2px;
        stroke-dasharray: 0.001 4;
      }

      .cls-21, .cls-23 {
        opacity: 0.75;
      }

      .cls-22 {
        fill: #4a8cc9;
      }

      .cls-25 {
        fill: #acaaaa;
      }
    </style>
  </defs>
  <g id="pattern_2" data-name="pattern 2" class="cls-1">
    <g id="unoversity">
      <path id="Ellipse_1_copy_3" data-name="Ellipse 1 copy 3" class="cls-2" d="M132.491,224.411A121.408,121.408,0,1,1,11.1,345.818,121.4,121.4,0,0,1,132.491,224.411Z" transform="translate(-0.063 -154.031)"/>
      <path class="cls-3" d="M112.235,353.381a2.54,2.54,0,0,0,2.816,2.229l10.089-1.173a2.54,2.54,0,0,0,2.229-2.815l-1.76-15.134a2.54,2.54,0,0,0-2.815-2.229l-10.089,1.173a2.54,2.54,0,0,0-2.229,2.815l1.759,15.134h0Zm3.579-13.2,5.044-.586,1.173,10.089-5.044.586Zm-4.282-14.84,10.089-1.173a2.54,2.54,0,0,0,2.229-2.816l-1.76-15.133a2.54,2.54,0,0,0-2.815-2.229l-10.089,1.173a2.54,2.54,0,0,0-2.229,2.815l1.759,15.134A2.54,2.54,0,0,0,111.532,325.343Zm0.762-15.427,5.045-.587,1.173,10.09-5.045.586Zm-21.736-.395,33.986-26.169,39.084,17.673a2.539,2.539,0,0,0,2.1-4.625l-39.166-17.71-1.886-16.228L137.283,261l0.587,5.044-7.567.88a2.539,2.539,0,0,0,.586,5.045l10.089-1.174a2.539,2.539,0,0,0,2.229-2.815l-1.173-10.089a2.54,2.54,0,0,0-2.815-2.229l-17.656,2.053a2.539,2.539,0,0,0-2.229,2.815l2.18,18.751L87.457,305.5A2.539,2.539,0,1,0,90.558,309.521ZM84.784,359.13a2.541,2.541,0,0,0,2.229-2.816l-1.76-15.134a2.541,2.541,0,0,0-2.815-2.229l-10.089,1.174a2.539,2.539,0,0,0-2.229,2.815l0.586,5.044a2.539,2.539,0,0,0,5.044-.586l-0.293-2.522,5.045-.587L81.968,356.9A2.541,2.541,0,0,0,84.784,359.13Zm21.468,30.736-8.5-73.146a2.539,2.539,0,0,0-5.044.586l8.5,73.147A2.54,2.54,0,1,0,106.252,389.866ZM95.107,403.944l85.757-9.971a2.539,2.539,0,0,0-.586-5.044l-22.7,2.639-2.932-25.223,2.522-.293a2.539,2.539,0,1,0-.587-5.044l-45.4,5.279a2.539,2.539,0,1,0,.587,5.044l2.522-.293,2.933,25.222-22.7,2.64A2.539,2.539,0,1,0,95.107,403.944Zm43.641-20.412a2.539,2.539,0,0,0-.586-5.045L136.989,368.4l12.611-1.466,2.933,25.222-12.612,1.467-1.173-10.089h0Zm-19.415-13.081,12.611-1.466,1.173,10.089a2.539,2.539,0,1,0,.587,5.044l1.173,10.089-12.612,1.467Zm72.853-11.027L182.1,360.6a2.54,2.54,0,0,0-2.229,2.815l1.759,15.134a2.541,2.541,0,0,0,2.816,2.229l10.089-1.173a2.54,2.54,0,0,0,2.229-2.816L195,361.653A2.539,2.539,0,0,0,192.186,359.424Zm-0.763,15.427-5.045.586-1.173-10.089,5.045-.586Zm-2.756-45.695-10.089,1.173a2.54,2.54,0,0,0-2.229,2.816l1.759,15.133a2.54,2.54,0,0,0,2.816,2.229l10.089-1.173a2.539,2.539,0,0,0,2.229-2.815l-1.76-15.134A2.54,2.54,0,0,0,188.667,329.156ZM187.9,344.583l-5.045.587-1.173-10.089,5.045-.587Zm3.636,53.262L85.6,410.162a2.539,2.539,0,1,0,.587,5.044l105.936-12.317A2.539,2.539,0,1,0,191.54,397.845Zm9.621-93.149a2.54,2.54,0,0,0-2.229,2.816l0.293,2.522L171.48,313.26a2.539,2.539,0,1,0,.587,5.044l27.745-3.226,9.678,83.236a2.539,2.539,0,0,0,5.044-.587l-10.558-90.8A2.539,2.539,0,0,0,201.161,304.7Zm-63.7,45.753a2.54,2.54,0,0,0,2.816,2.228l10.089-1.173a2.539,2.539,0,0,0,2.229-2.815l-1.76-15.134a2.54,2.54,0,0,0-2.815-2.229L137.928,332.5a2.54,2.54,0,0,0-2.229,2.816l1.759,15.134h0Zm3.578-13.2,5.045-.587,1.173,10.089-5.045.587-1.173-10.089h0ZM85.487,387.168c-0.038-.328-3.956-32.773-16.424-31.323s-8.837,33.928-8.8,34.255A12.717,12.717,0,0,0,71.79,401.284l1.5,12.866a2.539,2.539,0,0,0,5.044-.586l-1.5-12.866A12.719,12.719,0,0,0,85.487,387.168ZM73.756,396.2a7.627,7.627,0,0,1-8.447-6.687c-1.461-12.566.149-28.138,4.341-28.625s9.332,14.3,10.793,26.865A7.627,7.627,0,0,1,73.756,396.2Zm98.075-13.96-8.8-75.668a2.539,2.539,0,0,0-5.044.586l8.8,75.669A2.539,2.539,0,1,0,171.831,382.241ZM136.755,322.41l10.089-1.173a2.541,2.541,0,0,0,2.229-2.815l-1.76-15.134a2.54,2.54,0,0,0-2.815-2.229l-10.09,1.173a2.54,2.54,0,0,0-2.228,2.816l1.759,15.133A2.54,2.54,0,0,0,136.755,322.41Zm0.762-15.427,5.045-.586,1.173,10.089-5.045.586-1.173-10.089h0ZM58.681,354.5a2.54,2.54,0,0,0,2.229-2.815L58.564,331.5l27.745-3.226a2.539,2.539,0,0,0-.587-5.045l-27.745,3.226-0.293-2.522a2.539,2.539,0,0,0-5.045.586l3.226,27.745A2.539,2.539,0,0,0,58.681,354.5Z" transform="translate(-0.063 -154.031)"/>
    </g>
    <g id="unoversity_copy" data-name="unoversity copy">
      <circle id="Ellipse_1_copy_3-2" data-name="Ellipse 1 copy 3" class="cls-4" cx="2186.172" cy="765.873" r="121.425"/>
      <path class="cls-3" d="M2164.67,918.285a2.55,2.55,0,0,0,1.63,3.2l9.65,3.16a2.536,2.536,0,0,0,3.2-1.624l4.74-14.479a2.537,2.537,0,0,0-1.62-3.2l-9.65-3.16a2.55,2.55,0,0,0-3.21,1.623l-4.74,14.48h0Zm8.78-10.487,4.83,1.58-3.16,9.653-4.83-1.58Zm2.33-15.269,9.65,3.159a2.535,2.535,0,0,0,3.2-1.623l4.74-14.48a2.537,2.537,0,0,0-1.62-3.2l-9.65-3.159a2.546,2.546,0,0,0-3.21,1.623l-4.74,14.48A2.542,2.542,0,0,0,2175.78,892.529Zm7.15-13.69,4.83,1.58-3.16,9.653-4.83-1.58Zm-19.57-9.461,41.82-9.532,28.09,32.416a2.481,2.481,0,0,0,1.13.751,2.539,2.539,0,0,0,2.71-4.074l-28.15-32.483,5.08-15.527,12.07,3.95-1.58,4.827-7.24-2.37a2.539,2.539,0,1,0-1.58,4.826l9.65,3.16a2.536,2.536,0,0,0,3.2-1.624l3.16-9.653a2.537,2.537,0,0,0-1.62-3.2l-16.89-5.529a2.55,2.55,0,0,0-3.21,1.623l-5.87,17.94-41.91,9.552A2.54,2.54,0,1,0,2163.36,869.378Zm-26.02,42.631a2.535,2.535,0,0,0,3.2-1.623l4.74-14.48a2.537,2.537,0,0,0-1.62-3.2l-9.66-3.16a2.54,2.54,0,0,0-3.2,1.624l-1.58,4.826a2.541,2.541,0,0,0,4.83,1.58l0.79-2.413,4.82,1.58-3.95,12.066A2.55,2.55,0,0,0,2137.34,912.009Zm6.62,36.9,22.91-69.985a2.541,2.541,0,0,0-4.83-1.58l-22.9,69.985A2.536,2.536,0,1,0,2143.96,948.911Zm-16.01,8.117L2210,983.885a2.539,2.539,0,0,0,1.58-4.826l-21.72-7.109,7.9-24.133,2.41,0.79a2.54,2.54,0,0,0,1.58-4.827l-43.44-14.218a2.539,2.539,0,0,0-1.58,4.826l2.41,0.79-7.89,24.133-21.72-7.11A2.54,2.54,0,1,0,2127.95,957.028Zm48.17-.261a2.539,2.539,0,1,0,1.58-4.826l3.16-9.653,12.07,3.949-7.9,24.133-12.06-3.95,3.15-9.653h0Zm-12.15-20.009,12.07,3.949-3.16,9.654a2.539,2.539,0,0,0-1.58,4.826l-3.16,9.653-12.07-3.949Zm70.78,20.494-9.66-3.16a2.54,2.54,0,0,0-3.2,1.624l-4.74,14.479a2.546,2.546,0,0,0,1.62,3.2l9.66,3.159a2.539,2.539,0,0,0,3.2-1.623l4.74-14.48A2.537,2.537,0,0,0,2234.75,957.252Zm-7.16,13.69-4.82-1.58,3.16-9.653,4.82,1.58Zm16.64-42.649-9.66-3.16a2.539,2.539,0,0,0-3.2,1.623l-4.74,14.48a2.537,2.537,0,0,0,1.62,3.2l9.66,3.16a2.54,2.54,0,0,0,3.2-1.624l4.74-14.479A2.537,2.537,0,0,0,2244.23,928.293Zm-7.16,13.689-4.82-1.579,3.16-9.654,4.82,1.58Zm-19,49.89L2116.71,958.7a2.54,2.54,0,0,0-1.58,4.827L2216.49,996.7A2.539,2.539,0,0,0,2218.07,991.872Zm47.74-80.559a2.539,2.539,0,0,0-3.2,1.623l-0.79,2.413-26.54-8.689a2.539,2.539,0,1,0-1.58,4.826l26.54,8.689-26.07,79.639a2.54,2.54,0,1,0,4.83,1.576l28.44-86.875A2.542,2.542,0,0,0,2265.81,911.313Zm-77,14.871a2.537,2.537,0,0,0,1.62,3.2l9.65,3.16a2.546,2.546,0,0,0,3.21-1.624l4.74-14.479a2.55,2.55,0,0,0-1.63-3.2l-9.65-3.16a2.535,2.535,0,0,0-3.2,1.623l-4.74,14.48h0Zm8.77-10.486,4.83,1.579-3.16,9.654-4.83-1.58,3.16-9.653h0Zm-71.34,22.067c0.1-.313,10.13-31.417-1.8-35.322s-22.23,27.109-22.34,27.423a12.721,12.721,0,0,0,5.79,14.982l-4.03,12.311a2.536,2.536,0,1,0,4.82,1.58l4.03-12.311A12.726,12.726,0,0,0,2126.24,937.765Zm-14.44,3.291a7.626,7.626,0,0,1-4.87-9.61c3.93-12.023,11.92-25.489,15.93-24.177s2.48,16.893-1.45,28.916A7.63,7.63,0,0,1,2111.8,941.056Zm94.91,28.393,23.7-72.4a2.541,2.541,0,0,0-4.83-1.58l-23.7,72.4A2.541,2.541,0,1,0,2206.71,969.449Zm-6.8-69.021,9.65,3.16a2.551,2.551,0,0,0,3.21-1.624l4.74-14.479a2.55,2.55,0,0,0-1.63-3.2l-9.65-3.16a2.535,2.535,0,0,0-3.2,1.623l-4.74,14.48A2.537,2.537,0,0,0,2199.91,900.428Zm7.15-13.69,4.83,1.58-3.16,9.653-4.83-1.58,3.16-9.653h0Zm-91.49,10.132a2.546,2.546,0,0,0,3.21-1.623l6.32-19.307,26.54,8.69a2.54,2.54,0,1,0,1.58-4.827l-26.54-8.689,0.79-2.413a2.541,2.541,0,0,0-4.83-1.58l-8.69,26.546A2.545,2.545,0,0,0,2115.57,896.87Z" transform="translate(-0.063 -154.031)"/>
    </g>
    <g id="beakers">
      <circle class="cls-5" cx="399.203" cy="131.391" r="72.547"/>
      <path class="cls-6" d="M376.379,295.683a1.269,1.269,0,1,0,1.292-1.243h-0.013A1.26,1.26,0,0,0,376.379,295.683Zm20.3-5.375a1.9,1.9,0,1,0,1.928-1.863A1.9,1.9,0,0,0,396.682,290.308Zm-16.968-7.192a1.893,1.893,0,1,0-1.867-1.921A1.9,1.9,0,0,0,379.714,283.116Zm22.22-2.192a1.261,1.261,0,0,0-1.245-1.28h-0.012A1.261,1.261,0,1,0,401.934,280.924Zm16.21,14.121a1.252,1.252,0,1,0,.013,0h-0.013Zm3.883-6.881a1.9,1.9,0,1,0-1.929,1.863A1.9,1.9,0,0,0,422.027,288.164Zm10.948,27.29-63.26-.946a1.262,1.262,0,1,0-.04,2.523l63.259,0.945a1.156,1.156,0,0,1,1.245,1.281l-0.021,1.261-70.85-1.059,0.02-1.246a1.163,1.163,0,0,1,1.286-1.258,1.266,1.266,0,0,0,1.286-1.242l0.938-58.024,5.061,0.076-0.714,44.149a7.592,7.592,0,0,0,15.182.226l0.714-44.148,5.061,0.075-0.714,44.149a7.592,7.592,0,0,0,15.182.227l0.714-44.149,5.06,0.076-0.713,44.148a7.592,7.592,0,0,0,15.182.227l0.714-44.149,5.06,0.076-0.856,52.979a1.265,1.265,0,0,0,2.53.037l1.02-63.069a1.265,1.265,0,0,0-2.53-.038l-0.123,7.568-5.061-.075,0.062-3.785a1.261,1.261,0,1,0,.04-2.522l-1.265-.019a1.265,1.265,0,0,0-1.285,1.242l-0.837,51.717a5.061,5.061,0,0,1-10.121-.151l0.375-23.189a11.124,11.124,0,0,0,4.067.9,8.335,8.335,0,0,0,2.652-.378,1.262,1.262,0,1,0-.761-2.406,8.011,8.011,0,0,1-5.913-.885l0.416-25.757a1.261,1.261,0,0,0-1.244-1.28l-1.265-.019a1.262,1.262,0,1,0-.041,2.523l-0.061,3.784-5.061-.076,0.061-3.784a1.262,1.262,0,1,0,.041-2.523l-1.266-.019a1.266,1.266,0,0,0-1.285,1.243L404.08,302.4a5.062,5.062,0,0,1-10.122-.151l0.457-28.235a11.119,11.119,0,0,0,4.066.9,8.341,8.341,0,0,0,2.653-.378,1.262,1.262,0,1,0-.761-2.406,8.018,8.018,0,0,1-5.913-.884l0.335-20.712a1.263,1.263,0,0,0-1.245-1.281l-1.266-.019a1.262,1.262,0,1,0-.04,2.523l-0.062,3.784-5.06-.075,0.061-3.784a1.262,1.262,0,1,0,.041-2.523l-1.265-.019a1.266,1.266,0,0,0-1.286,1.242L383.837,302.1a5.062,5.062,0,0,1-10.122-.152l0.538-33.28a11.124,11.124,0,0,0,4.067.9,8.331,8.331,0,0,0,2.652-.378,1.262,1.262,0,1,0-.76-2.406,8.04,8.04,0,0,1-5.914-.885l0.254-15.666a1.262,1.262,0,0,0-1.245-1.28l-1.265-.019a1.262,1.262,0,1,0-.041,2.523l-0.061,3.784-5.061-.076L367,247.6a1.265,1.265,0,0,0-2.53-.038l-1.084,67.034a3.741,3.741,0,0,0-2.589,3.566l-0.041,2.523a1.262,1.262,0,0,0,1.245,1.28l73.381,1.1a1.266,1.266,0,0,0,1.285-1.243l0.041-2.522A3.677,3.677,0,0,0,432.975,315.454Zm-52.9-13.408a1.261,1.261,0,1,0,.041-2.522h-0.013A1.261,1.261,0,1,0,380.079,302.046Z" transform="translate(-0.063 -154.031)"/>
    </g>
    <g id="beakers_copy" data-name="beakers copy">
      <circle class="cls-5" cx="1946.438" cy="469.469" r="72.5"/>
      <path class="cls-6" d="M1921.9,628.285a1.268,1.268,0,1,0,1.54-.915l-0.02,0A1.251,1.251,0,0,0,1921.9,628.285Zm20.98-.617a1.884,1.884,0,0,0,1.38,2.294A1.891,1.891,0,1,0,1942.88,627.668ZM1928,616.813a1.891,1.891,0,1,0-1.38-2.293A1.884,1.884,0,0,0,1928,616.813Zm22.12,2.916a1.259,1.259,0,0,0-.92-1.529l-0.01,0A1.261,1.261,0,1,0,1950.12,619.729Zm12.57,17.426a1.332,1.332,0,1,0,.01,0Zm5.34-5.815a1.9,1.9,0,1,0-2.3,1.376A1.9,1.9,0,0,0,1968.03,631.34Zm4.45,29.046-61.35-15.294a1.26,1.26,0,1,0-.61,2.446l61.35,15.294a1.153,1.153,0,0,1,.92,1.528l-0.31,1.223-68.71-17.129,0.31-1.208a1.152,1.152,0,0,1,1.53-.932,1.271,1.271,0,0,0,1.54-.917l14.09-56.254,4.91,1.223-10.73,42.8a7.59,7.59,0,0,0,14.73,3.67l10.72-42.8,4.91,1.223-10.72,42.8a7.585,7.585,0,0,0,14.72,3.67l10.73-42.8,4.9,1.223-10.72,42.8a7.585,7.585,0,0,0,14.72,3.67l10.73-42.8,4.91,1.223-12.88,51.363a1.268,1.268,0,0,0,2.46.612l15.32-61.146a1.263,1.263,0,0,0-2.45-.612l-1.84,7.337-4.91-1.223,0.92-3.669a1.26,1.26,0,1,0,.61-2.446l-1.22-.306a1.272,1.272,0,0,0-1.54.917l-12.56,50.14a5.06,5.06,0,0,1-9.82-2.447l5.64-22.482a11.067,11.067,0,0,0,3.75,1.8,8.351,8.351,0,0,0,2.67.234,1.261,1.261,0,1,0-.2-2.514,8.012,8.012,0,0,1-5.55-2.205l6.26-24.972a1.265,1.265,0,0,0-.92-1.528l-1.23-.306a1.26,1.26,0,1,0-.61,2.446l-0.92,3.668-4.91-1.223,0.92-3.669a1.26,1.26,0,1,0,.61-2.446l-1.23-.306a1.266,1.266,0,0,0-1.53.917l-12.56,50.14a5.06,5.06,0,0,1-9.82-2.447l6.86-27.373a11.178,11.178,0,0,0,3.75,1.8,8.4,8.4,0,0,0,2.67.235,1.261,1.261,0,1,0-.19-2.515,8.04,8.04,0,0,1-5.56-2.2l5.04-20.081a1.273,1.273,0,0,0-.92-1.528l-1.23-.306a1.261,1.261,0,1,0-.61,2.446l-0.92,3.668-4.91-1.223,0.92-3.669a1.26,1.26,0,1,0,.61-2.446l-1.23-.306a1.266,1.266,0,0,0-1.53.917l-12.57,50.14a5.055,5.055,0,0,1-9.81-2.447l8.08-32.265a11.235,11.235,0,0,0,3.76,1.8,8.379,8.379,0,0,0,2.67.235,1.261,1.261,0,1,0-.2-2.515,8.026,8.026,0,0,1-5.55-2.2l3.8-15.189a1.257,1.257,0,0,0-.92-1.528l-1.22-.306a1.262,1.262,0,1,0-.62,2.446l-0.92,3.668-4.9-1.223,1.84-7.338a1.267,1.267,0,0,0-2.46-.611l-16.29,64.989a3.725,3.725,0,0,0-3.32,2.883l-0.62,2.446a1.265,1.265,0,0,0,.92,1.528l71.17,17.741a1.265,1.265,0,0,0,1.53-.917l0.61-2.446A3.674,3.674,0,0,0,1972.48,660.386Zm-48.43-25.067a1.26,1.26,0,1,0,.61-2.446l-0.01,0A1.261,1.261,0,1,0,1924.05,635.319Z" transform="translate(-0.063 -154.031)"/>
    </g>
    <g id="supplies">
      <ellipse class="cls-7" cx="735.938" cy="214.969" rx="124" ry="127"/>
      <path class="cls-8" d="M773.845,288.534l-33.973-5.574A12.344,12.344,0,0,0,725.794,293.4l-14,89.515a2.511,2.511,0,0,0,2.038,2.885l14.56,2.389a2.466,2.466,0,0,0,2.816-2.089,2.51,2.51,0,0,0-2.038-2.884l-12.133-1.991,0.777-4.973,2.427,0.4a2.465,2.465,0,0,0,2.815-2.088,2.509,2.509,0,0,0-2.037-2.885l-2.427-.4,0.778-4.973,2.427,0.4a2.465,2.465,0,0,0,2.815-2.088,2.509,2.509,0,0,0-2.037-2.885l-2.427-.4,0.778-4.974,2.427,0.4a2.466,2.466,0,0,0,2.815-2.089,2.51,2.51,0,0,0-2.038-2.884l-2.426-.4,0.778-4.973,12.133,1.991a2.466,2.466,0,0,0,2.816-2.088,2.511,2.511,0,0,0-2.038-2.885l-12.133-1.991,0.777-4.973,2.427,0.4a2.465,2.465,0,0,0,2.816-2.088,2.51,2.51,0,0,0-2.038-2.884l-2.427-.4,0.778-4.973,2.427,0.4a2.465,2.465,0,0,0,2.815-2.088,2.509,2.509,0,0,0-2.037-2.885l-2.427-.4,0.778-4.973,2.427,0.4a2.465,2.465,0,0,0,2.815-2.088A2.51,2.51,0,0,0,730.351,312l-2.426-.4,0.778-4.973,12.133,1.99a2.465,2.465,0,0,0,2.816-2.088,2.512,2.512,0,0,0-2.038-2.885l-12.133-1.99,1.167-7.46a7.406,7.406,0,0,1,8.446-6.265l33.974,5.574a7.543,7.543,0,0,1,6.113,8.654L759.734,426.488a7.408,7.408,0,0,1-8.447,6.265l-33.973-5.574a7.541,7.541,0,0,1-6.113-8.654l3.889-24.866a2.51,2.51,0,0,0-2.038-2.884,2.466,2.466,0,0,0-2.815,2.088l-3.889,24.865a12.569,12.569,0,0,0,10.188,14.424l33.973,5.574a12.345,12.345,0,0,0,14.079-10.442l19.447-124.326A12.571,12.571,0,0,0,773.845,288.534Zm-80.279,19.98-14,89.515a2.51,2.51,0,0,0,2.038,2.885,2.465,2.465,0,0,0,2.815-2.088l14-89.516a2.51,2.51,0,0,0-2.038-2.884A2.464,2.464,0,0,0,693.566,308.514Zm9.437-30.2a2.53,2.53,0,0,0-4.341-.712l-12.818,18.3a2.549,2.549,0,0,0-.429,1.07L667.524,411.356a12.568,12.568,0,0,0,10.188,14.423,12.344,12.344,0,0,0,14.078-10.442l0.778-4.973a2.511,2.511,0,0,0-2.037-2.885l-9.707-1.592a2.466,2.466,0,0,0-2.816,2.088,2.511,2.511,0,0,0,2.038,2.885l7.28,1.194-0.389,2.487a7.408,7.408,0,0,1-8.447,6.265,7.543,7.543,0,0,1-6.113-8.654l17.8-113.794,9.613-13.725,3.927,12.8-5.78-.949a2.465,2.465,0,0,0-2.815,2.089,2.509,2.509,0,0,0,2.037,2.884l7.28,1.195-15.168,96.975a2.509,2.509,0,0,0,2.037,2.884,2.466,2.466,0,0,0,2.816-2.088l15.557-99.456,0.007-.045a2.608,2.608,0,0,0-.1-1.162Zm44.115,133.349a10.053,10.053,0,0,0-8.15-11.539,9.874,9.874,0,0,0-11.263,8.353,10.054,10.054,0,0,0,8.151,11.539A9.874,9.874,0,0,0,747.118,411.667Zm-14.56-2.389a4.937,4.937,0,0,1,5.632-4.177,5.027,5.027,0,0,1,4.075,5.769,4.938,4.938,0,0,1-5.631,4.177A5.027,5.027,0,0,1,732.558,409.278ZM794,414.258a2.466,2.466,0,0,0-2.816,2.089,2.51,2.51,0,0,0,2.038,2.884l19.413,3.186a2.466,2.466,0,0,0,2.816-2.089l2.333-14.919A12.568,12.568,0,0,0,807.6,390.986l-9.707-1.593a12.344,12.344,0,0,0-14.078,10.442l-4.667,29.838A12.569,12.569,0,0,0,789.336,444.1l9.706,1.593a12.345,12.345,0,0,0,14.078-10.442l0.778-4.974a2.51,2.51,0,0,0-2.038-2.884,2.465,2.465,0,0,0-2.815,2.088l-0.778,4.973a7.407,7.407,0,0,1-8.447,6.265l-9.706-1.592A7.542,7.542,0,0,1,784,430.47l4.667-29.839a7.408,7.408,0,0,1,8.447-6.265l9.706,1.593a7.541,7.541,0,0,1,6.113,8.654l-1.944,12.433Z" transform="translate(-0.063 -154.031)"/>
    </g>
    <g id="supplies_copy" data-name="supplies copy">
      <path class="cls-9" d="M1666.78,769.113a94.92,94.92,0,1,1-94.9,94.92A94.913,94.913,0,0,1,1666.78,769.113Z" transform="translate(-0.063 -154.031)"/>
      <path class="cls-10" d="M1695.75,803.883l-26-4.166a9.424,9.424,0,0,0-10.78,7.8l-10.72,66.9a1.889,1.889,0,0,0,1.56,2.156l11.15,1.786a1.882,1.882,0,0,0,.59-3.717l-9.28-1.488,0.59-3.716,1.86,0.3a1.882,1.882,0,1,0,.6-3.716l-1.86-.3,0.59-3.717,1.86,0.3a1.882,1.882,0,1,0,.6-3.716l-1.86-.3,0.59-3.717,1.86,0.3a1.883,1.883,0,1,0,.6-3.717l-1.86-.3,0.6-3.717,9.28,1.488a1.883,1.883,0,1,0,.6-3.717l-9.29-1.488,0.6-3.716,1.85,0.3a1.882,1.882,0,1,0,.6-3.716l-1.86-.3,0.6-3.717,1.85,0.3a1.883,1.883,0,1,0,.6-3.717l-1.86-.3,0.6-3.717,1.86,0.3a1.882,1.882,0,0,0,.59-3.717l-1.86-.3,0.6-3.717,9.29,1.487a1.881,1.881,0,0,0,.59-3.716l-9.29-1.488,0.9-5.575a5.647,5.647,0,0,1,6.46-4.682l26.01,4.166a5.656,5.656,0,0,1,4.68,6.468l-14.89,92.915a5.651,5.651,0,0,1-6.47,4.683l-26-4.166a5.656,5.656,0,0,1-4.68-6.468l2.98-18.583a1.884,1.884,0,0,0-3.72-.595l-2.97,18.583a9.413,9.413,0,0,0,7.8,10.779l26,4.166a9.422,9.422,0,0,0,10.78-7.8l14.88-92.915A9.421,9.421,0,0,0,1695.75,803.883Zm-61.45,14.932-10.71,66.9a1.879,1.879,0,1,0,3.71.595l10.72-66.9A1.884,1.884,0,0,0,1634.3,818.815Zm7.23-22.567a1.963,1.963,0,0,0-3.33-.532l-9.81,13.676a1.935,1.935,0,0,0-.33.8l-13.69,85.483a9.4,9.4,0,1,0,18.57,2.976l0.6-3.717a1.883,1.883,0,0,0-1.56-2.156l-7.43-1.19a1.882,1.882,0,0,0-.6,3.716l5.58,0.893-0.3,1.858a5.646,5.646,0,1,1-11.15-1.785l13.63-85.044,7.36-10.257,3,9.562-4.42-.709a1.883,1.883,0,1,0-.6,3.717l5.58,0.892-11.61,72.475a1.879,1.879,0,1,0,3.71.6l11.91-74.329v-0.033a1.809,1.809,0,0,0-.07-0.869Zm33.76,99.658a7.525,7.525,0,1,0-8.62,6.243A7.53,7.53,0,0,0,1675.29,895.906Zm-11.14-1.785a3.762,3.762,0,1,1,3.12,4.312A3.767,3.767,0,0,1,1664.15,894.121Zm47.03,3.723a1.881,1.881,0,0,0-.59,3.716l14.86,2.381a1.878,1.878,0,0,0,2.15-1.561l1.79-11.15a9.422,9.422,0,0,0-7.8-10.78l-7.43-1.19a9.423,9.423,0,0,0-10.78,7.8l-3.57,22.3a9.42,9.42,0,0,0,7.8,10.779l7.43,1.191a9.414,9.414,0,0,0,10.77-7.8l0.6-3.717a1.884,1.884,0,0,0-3.72-.6l-0.59,3.717a5.651,5.651,0,0,1-6.47,4.682l-7.43-1.19a5.642,5.642,0,0,1-4.67-6.468l3.57-22.3a5.647,5.647,0,0,1,6.46-4.682l7.43,1.19a5.648,5.648,0,0,1,4.68,6.468l-1.49,9.292Z" transform="translate(-0.063 -154.031)"/>
    </g>
    <g id="atom">
      <path class="cls-11" d="M1095.46,154.031c56.49,0,102.28,41.988,102.28,93.781s-45.79,93.782-102.28,93.782-102.283-41.988-102.283-93.782S1038.97,154.031,1095.46,154.031Z" transform="translate(-0.063 -154.031)"/>
      <path class="cls-12" d="M1159.47,241.133c0-9.554-9.1-17.924-23.54-23.358,0.25-1.533.47-3.046,0.62-4.526,1.39-13.637-1.78-23.432-8.94-27.585a15.8,15.8,0,0,0-8.05-2.067c-7.06,0-15.4,4.031-23.76,10.938-6.77-5.613-13.55-9.322-19.73-10.511a2.133,2.133,0,0,0-.8,4.191c5.29,1.021,11.24,4.281,17.25,9.183a110.243,110.243,0,0,0-13.32,14.826,107.873,107.873,0,0,0-19.56,4.135c-1.09-6.984-1.03-13.214.33-18.124a8.638,8.638,0,1,0-3.83-1.981c-1.82,5.841-1.99,13.239-.62,21.534-14.41,5.434-23.5,13.8-23.5,23.345,0,9.288,8.65,17.71,23.51,23.294-2.54,15.289.12,27.4,8.35,32.179a15.8,15.8,0,0,0,8.05,2.065c7.07,0,15.42-4.037,23.78-10.955,6.84,5.675,13.62,9.354,19.72,10.528a2.085,2.085,0,0,0,.4.039,2.137,2.137,0,0,0,.4-4.232c-5.19-1-11.17-4.232-17.26-9.183a109.569,109.569,0,0,0,13.32-14.826,107.981,107.981,0,0,0,19.57-4.138c1.1,6.978,1.03,13.208-.34,18.129a8.363,8.363,0,0,0-1.79-.2,8.609,8.609,0,1,0,5.62,2.182c1.83-5.857,2-13.253.63-21.543C1150.39,259.038,1159.47,250.677,1159.47,241.133Zm-39.91-53.266a11.613,11.613,0,0,1,5.92,1.5c5.54,3.213,8.04,11.762,6.84,23.451-0.11,1.157-.3,2.351-0.48,3.542a108.34,108.34,0,0,0-19.53-4.127,109.6,109.6,0,0,0-13.26-14.858C1106.41,191.38,1113.62,187.867,1119.56,187.867Zm11.48,32.8a101.354,101.354,0,0,1-4.54,15.059q-2.265-4.763-5-9.539c-1.82-3.173-3.74-6.209-5.72-9.117A101.912,101.912,0,0,1,1131.04,220.668ZM1095.77,200.2a102.05,102.05,0,0,1,10.68,11.451c-3.48-.265-7.05-0.41-10.71-0.41s-7.21.145-10.68,0.408A102.935,102.935,0,0,1,1095.77,200.2Zm-20.06,16.87c-1.98,2.906-3.9,5.95-5.72,9.119-1.83,3.187-3.5,6.373-5,9.533a101.168,101.168,0,0,1-4.55-15.048A101.789,101.789,0,0,1,1075.71,217.071Zm-13.95-31.45a4.271,4.271,0,1,1-4.25,4.27A4.258,4.258,0,0,1,1061.76,185.621Zm-25.5,55.512c0-7.454,7.86-14.284,20.11-19.015a111.173,111.173,0,0,0,6.18,18.987,109.293,109.293,0,0,0-6.2,19.064C1043.79,255.3,1036.26,248.332,1036.26,241.133Zm59.46,40.927a99.1,99.1,0,0,1-9.93-10.521c0.18-.273.31-0.574,0.47-0.867,3.17,0.22,6.36.352,9.48,0.352,3.66,0,7.22-.143,10.69-0.408A102.781,102.781,0,0,1,1095.72,282.06ZM1110,265.973a129.629,129.629,0,0,1-14.26.781c-2.81,0-5.67-.117-8.52-0.3a8.489,8.489,0,1,0-8.47,8.841,8.332,8.332,0,0,0,3.82-.956,105.716,105.716,0,0,0,9.89,10.54c-7.36,6-14.58,9.523-20.53,9.523a11.656,11.656,0,0,1-5.93-1.5c-6.42-3.727-8.38-13.988-6.32-27.032,1.16,0.368,2.35.72,3.58,1.055a2.133,2.133,0,0,0,1.11-4.119c-1.34-.369-2.64-0.768-3.91-1.178a103.84,103.84,0,0,1,4.53-15.078c1.41,2.953,2.95,5.917,4.63,8.869a2.113,2.113,0,0,0,2.89.8,2.144,2.144,0,0,0,.8-2.913,131.817,131.817,0,0,1-6.11-12.154,131.511,131.511,0,0,1,14.29-24.859,130.5,130.5,0,0,1,28.53,0,131.48,131.48,0,0,1,7.8,12.027,133.956,133.956,0,0,1,6.47,12.787A131.046,131.046,0,0,1,1110,265.973Zm-27,.781a4.244,4.244,0,0,1-1.3,3.057c-0.01.009-.02,0.011-0.03,0.02a0.345,0.345,0,0,0-.03.034,4.209,4.209,0,0,1-2.89,1.159A4.27,4.27,0,1,1,1083,266.754Zm32.78-1.559q2.985-4.357,5.72-9.114c1.82-3.171,3.47-6.373,5-9.574a102.9,102.9,0,0,1,4.56,15.082A101.632,101.632,0,0,1,1115.78,265.2Zm13.95,31.45a4.27,4.27,0,1,1,4.25-4.27A4.267,4.267,0,0,1,1129.73,296.645Zm5.41-36.5a110.31,110.31,0,0,0-6.22-19.035,109.247,109.247,0,0,0,6.16-19c12.27,4.731,20.14,11.568,20.14,19.03S1147.38,255.41,1135.14,260.142Z" transform="translate(-0.063 -154.031)"/>
    </g>
    <g id="atom_copy" data-name="atom copy">
      <path class="cls-13" d="M299.4,896.617c37.529,0,67.951,27.9,67.951,62.322s-30.422,62.321-67.951,62.321-67.95-27.9-67.95-62.321S261.871,896.617,299.4,896.617Z" transform="translate(-0.063 -154.031)"/>
      <path class="cls-12" d="M338.521,961.353c0-6.349-6.051-11.911-15.646-15.522,0.167-1.018.313-2.024,0.413-3.007,0.925-9.062-1.186-15.571-5.941-18.331A10.523,10.523,0,0,0,312,923.12c-4.691,0-10.233,2.679-15.786,7.268-4.5-3.73-9.006-6.194-13.114-6.984a1.418,1.418,0,0,0-.532,2.785c3.52,0.678,7.469,2.844,11.465,6.1a73.194,73.194,0,0,0-8.848,9.851,71.77,71.77,0,0,0-13,2.749,29.336,29.336,0,0,1,.22-12.044,5.744,5.744,0,1,0-2.545-1.317c-1.208,3.882-1.322,8.8-.409,14.31-9.582,3.611-15.622,9.168-15.622,15.513,0,6.171,5.751,11.768,15.624,15.478-1.687,10.16.08,18.208,5.55,21.384a10.523,10.523,0,0,0,5.351,1.372c4.695,0,10.243-2.683,15.8-7.28,4.544,3.771,9.054,6.216,13.1,7a1.419,1.419,0,0,0,.532-2.787c-3.448-.664-7.418-2.811-11.465-6.1a73.066,73.066,0,0,0,8.848-9.851,71.782,71.782,0,0,0,13.007-2.75,29.279,29.279,0,0,1-.226,12.047,5.568,5.568,0,0,0-1.189-.132,5.718,5.718,0,1,0,3.734,1.45c1.214-3.892,1.331-8.806.418-14.315C332.486,973.25,338.521,967.694,338.521,961.353ZM312,925.958a7.734,7.734,0,0,1,3.938.993c3.68,2.135,5.337,7.816,4.545,15.583-0.079.769-.2,1.562-0.324,2.354a71.892,71.892,0,0,0-12.976-2.743,73.135,73.135,0,0,0-8.808-9.873C303.26,928.292,308.049,925.958,312,925.958Zm7.627,21.8a67,67,0,0,1-3.011,10.006q-1.512-3.164-3.323-6.339c-1.21-2.108-2.488-4.125-3.8-6.058A67.743,67.743,0,0,1,319.624,947.754Zm-23.431-13.6a68.092,68.092,0,0,1,7.091,7.608c-2.308-.175-4.681-0.272-7.111-0.272s-4.8.1-7.1,0.271A68.321,68.321,0,0,1,296.193,934.154ZM282.86,945.363c-1.318,1.931-2.593,3.954-3.8,6.06s-2.322,4.235-3.325,6.334a68,68,0,0,1-3.023-10A67.764,67.764,0,0,1,282.86,945.363Zm-9.273-20.9a2.838,2.838,0,1,1-2.823,2.838A2.834,2.834,0,0,1,273.587,924.465Zm-16.939,36.888c0-4.953,5.219-9.492,13.362-12.636a73.232,73.232,0,0,0,4.108,12.617A72.729,72.729,0,0,0,269.994,974C261.647,970.766,256.648,966.137,256.648,961.353Zm39.512,27.2a66.014,66.014,0,0,1-6.605-6.992,5.5,5.5,0,0,0,.312-0.576c2.112,0.146,4.228.234,6.306,0.234,2.428,0,4.8-.1,7.1-0.271A68.363,68.363,0,0,1,296.16,988.549Zm9.486-10.691a86.068,86.068,0,0,1-9.473.52c-1.868,0-3.768-.078-5.668-0.2a5.638,5.638,0,1,0-5.625,5.875,5.55,5.55,0,0,0,2.541-.636,69.768,69.768,0,0,0,6.57,7c-4.894,3.99-9.69,6.328-13.641,6.328a7.734,7.734,0,0,1-3.94-.993c-4.27-2.477-5.57-9.3-4.2-17.963q1.156,0.366,2.377.7a1.418,1.418,0,0,0,.741-2.737c-0.9-.245-1.756-0.51-2.6-0.783a68.507,68.507,0,0,1,3.008-10.019q1.4,2.943,3.073,5.893a1.413,1.413,0,1,0,2.452-1.4,87.713,87.713,0,0,1-4.055-8.077,87.054,87.054,0,0,1,9.494-16.519,86.628,86.628,0,0,1,18.955,0,88.308,88.308,0,0,1,9.484,16.488,89.391,89.391,0,0,1-4.3,8.53A86.96,86.96,0,0,1,305.646,977.858Zm-17.943.52a2.826,2.826,0,0,1-.859,2.031c-0.008.006-.016,0.008-0.023,0.013s-0.011.016-.02,0.023a2.8,2.8,0,0,1-1.921.77A2.838,2.838,0,1,1,287.7,978.378Zm21.784-1.036c1.32-1.931,2.593-3.953,3.8-6.057s2.307-4.235,3.319-6.361a67.909,67.909,0,0,1,3.035,10.022A67.664,67.664,0,0,1,309.487,977.342Zm9.271,20.9a2.838,2.838,0,1,1,2.823-2.837A2.834,2.834,0,0,1,318.758,998.24Zm3.591-24.256a73.251,73.251,0,0,0-4.131-12.648,72.888,72.888,0,0,0,4.092-12.629c8.157,3.144,13.387,7.687,13.387,12.646S330.486,970.84,322.349,973.984Z" transform="translate(-0.063 -154.031)"/>
    </g>
    <g id="open_book" data-name="open book">
      <circle class="cls-14" cx="2401.203" cy="517.157" r="152.675"/>
      <path class="cls-8" d="M2415.91,656.638a2.958,2.958,0,0,0,3.47,2.335c0.19-.038,19.34-3.749,28.32-4a2.957,2.957,0,0,0-.16-5.911c-9.47.263-28.48,3.95-29.29,4.107A2.958,2.958,0,0,0,2415.91,656.638Zm11.85-31.809a2.935,2.935,0,0,0,1.37.058c0.2-.037,19.34-3.749,28.33-3.995a2.956,2.956,0,0,0-.17-5.91c-9.46.262-28.48,3.949-29.29,4.106A2.955,2.955,0,0,0,2427.76,624.829Zm69.77,13.815a2.951,2.951,0,0,0-3.65,2.028l-31.7,110.779a8.882,8.882,0,0,1-10.96,6.084l-68.15-19.5,1.87-6.536c4.55-.265,16.31-0.557,26.94,2.485,24.73,7.077,39.96,17.361,40.11,17.466a2.958,2.958,0,0,0,4.51-1.628l35.76-124.981a2.95,2.95,0,0,0-1.43-3.409s-2.08-1.134-5.69-2.921a2.953,2.953,0,0,0-2.62,5.293c1.37,0.682,2.52,1.265,3.4,1.721l-34.02,118.9a166.77,166.77,0,0,0-38.4-16.119c-12.37-3.54-25.69-2.952-29.84-2.65a69.187,69.187,0,0,0-24.11-12.785,198.91,198.91,0,0,0-43.98-7.32l34.09-119.128a194.3,194.3,0,0,1,44.03,7.147,64,64,0,0,1,21.38,11.18L2383.08,716.53a2.952,2.952,0,0,0,3.61,3.665c0.32-.087,33.27-8.848,60.62-10.029a2.955,2.955,0,0,0,2.72-2.14l33.33-116.461a2.989,2.989,0,0,0-.56-2.685,2.948,2.948,0,0,0-2.52-1.074c-25.16,2.024-52.24,9.758-52.51,9.834a2.954,2.954,0,1,0,1.63,5.679c0.24-.074,23.81-6.8,47.09-9.225l-31.56,110.273c-21.31,1.193-44.7,6.4-54.76,8.854l31.11-108.686a2.966,2.966,0,0,0-.85-2.991,68.345,68.345,0,0,0-25.11-13.654,191.666,191.666,0,0,0-47.87-7.43,2.948,2.948,0,0,0-2.84,2.141l-35.77,124.982a3,3,0,0,0,.48,2.59,2.95,2.95,0,0,0,1.55,1.063,2.871,2.871,0,0,0,.81.112,189.694,189.694,0,0,1,46.25,7.205,63.858,63.858,0,0,1,21.37,11.183l-1.91,6.678-68.15-19.5a8.881,8.881,0,0,1-6.08-10.959l31.71-110.779a2.954,2.954,0,0,0-5.68-1.625l-31.71,110.78a14.789,14.789,0,0,0,10.14,18.264l141.97,40.619a14.784,14.784,0,0,0,18.26-10.141L2499.56,642.3A2.954,2.954,0,0,0,2497.53,638.644Zm-76.74.951a2.958,2.958,0,0,0,3.47,2.335c0.19-.038,19.33-3.749,28.32-4a2.957,2.957,0,0,0-.16-5.911c-9.47.263-28.49,3.95-29.29,4.107A2.958,2.958,0,0,0,2420.79,639.6Zm-9.75,34.086a2.953,2.953,0,0,0,3.46,2.335c0.19-.038,19.34-3.749,28.33-4a2.956,2.956,0,0,0-.17-5.91c-9.47.263-28.48,3.95-29.29,4.106A2.953,2.953,0,0,0,2411.04,673.681ZM2395.9,620.5c-16.35-9.133-37.78-9.59-38.68-9.605a2.956,2.956,0,0,0-.87,5.794,3.062,3.062,0,0,0,.77.115c0.21,0,20.83.441,35.91,8.856A2.952,2.952,0,1,0,2395.9,620.5Zm-4.87,17.043c-16.36-9.13-37.79-9.59-38.69-9.605a2.955,2.955,0,0,0-.1,5.909c0.21,0,20.84.441,35.91,8.856A2.955,2.955,0,0,0,2391.03,637.546Zm15.13,53.178a2.962,2.962,0,0,0,2.09,2.276,2.922,2.922,0,0,0,1.37.059c0.2-.038,19.34-3.749,28.33-4a2.956,2.956,0,0,0-.16-5.91c-9.47.263-28.49,3.95-29.29,4.106A2.952,2.952,0,0,0,2406.16,690.724Zm-20.01-36.136c-16.36-9.129-37.78-9.592-38.69-9.6a2.955,2.955,0,1,0-.09,5.909c0.2,0,20.83.441,35.9,8.855A2.955,2.955,0,0,0,2386.15,654.588Zm-9.76,34.086c-16.35-9.132-37.78-9.589-38.68-9.6a2.958,2.958,0,0,0-.87,5.8,3.015,3.015,0,0,0,.77.112c0.21,0,20.83.441,35.91,8.855A2.952,2.952,0,1,0,2376.39,688.674Zm4.88-17.043c-16.36-9.132-37.78-9.592-38.68-9.6a2.956,2.956,0,0,0-.87,5.8,3.015,3.015,0,0,0,.77.112c0.2,0,20.83.441,35.9,8.855A2.955,2.955,0,0,0,2381.27,671.631Z" transform="translate(-0.063 -154.031)"/>
    </g>
    <g id="open_book_copy" data-name="open book copy">
      <circle class="cls-14" cx="391.875" cy="470.984" r="95.75"/>
      <path class="cls-8" d="M397.84,612.909a1.853,1.853,0,0,0,2.551.6c0.1-.064,10.509-6.488,15.726-8.626a1.854,1.854,0,0,0-1.407-3.43c-5.5,2.255-15.83,8.635-16.268,8.906A1.853,1.853,0,0,0,397.84,612.909Zm-0.108-21.284a1.84,1.84,0,0,0,.819-0.271c0.1-.064,10.509-6.487,15.726-8.626a1.853,1.853,0,0,0-1.407-3.429c-5.5,2.254-15.829,8.634-16.268,8.9A1.852,1.852,0,0,0,397.732,591.625Zm43.985-7.374a1.853,1.853,0,0,0-1.693,2l5.98,72a5.565,5.565,0,0,1-5.077,6l-44.293,3.682-0.353-4.248a54.559,54.559,0,0,1,16.349-4.518c16.077-1.336,27.289,1.318,27.4,1.346a1.852,1.852,0,0,0,2.281-1.954l-6.745-81.235a1.851,1.851,0,0,0-1.6-1.682s-1.474-.2-3.985-0.451a1.853,1.853,0,0,0-.366,3.687c0.957,0.1,1.76.183,2.379,0.254l6.418,77.28a104.566,104.566,0,0,0-26.094-.937,58.173,58.173,0,0,0-18.09,5.065,43.383,43.383,0,0,0-16.976-2.151,124.777,124.777,0,0,0-27.42,5.464l-6.43-77.43a121.848,121.848,0,0,1,27.411-5.576,40.165,40.165,0,0,1,15.017,1.815l6.033,72.654a1.852,1.852,0,0,0,2.928,1.35c0.173-.124,17.552-12.57,33.332-19.331a1.852,1.852,0,0,0,1.117-1.857l-6.286-75.7a1.854,1.854,0,0,0-2.639-1.522c-14.306,6.768-28.475,17.311-28.617,17.416a1.853,1.853,0,0,0,2.217,2.969,197.79,197.79,0,0,1,25.572-15.857l5.952,71.675c-12.234,5.427-24.794,13.671-30.151,17.339l-5.866-70.643a1.854,1.854,0,0,0-1.158-1.567,42.884,42.884,0,0,0-17.758-2.437,120.127,120.127,0,0,0-29.723,6.261A1.852,1.852,0,0,0,339.6,585.3l6.746,81.235a1.85,1.85,0,0,0,2,1.693,1.815,1.815,0,0,0,.5-0.114,118.913,118.913,0,0,1,28.723-6.033,40.049,40.049,0,0,1,15.017,1.817l0.36,4.341-44.293,3.682a5.563,5.563,0,0,1-6-5.079l-5.979-72a1.852,1.852,0,1,0-3.691.307l5.979,72a9.27,9.27,0,0,0,9.994,8.464l92.278-7.67a9.273,9.273,0,0,0,8.461-10l-5.979-72A1.852,1.852,0,0,0,441.717,584.251Zm-44.8,17.58a1.855,1.855,0,0,0,2.551.6c0.1-.065,10.509-6.488,15.726-8.626a1.854,1.854,0,0,0-1.407-3.43c-5.5,2.254-15.829,8.634-16.268,8.9A1.854,1.854,0,0,0,396.92,601.831Zm1.84,22.155a1.855,1.855,0,0,0,2.551.6c0.1-.065,10.509-6.488,15.726-8.626a1.854,1.854,0,0,0-1.407-3.43c-5.5,2.254-15.83,8.634-16.268,8.905A1.854,1.854,0,0,0,398.76,623.986Zm-20.671-27.832c-11.619-1.728-24.286,2.757-24.818,2.948a1.852,1.852,0,1,0,1.252,3.487c0.121-.045,12.317-4.362,23.023-2.77A1.853,1.853,0,0,0,378.089,596.154Zm0.92,11.078c-11.618-1.726-24.286,2.756-24.818,2.947a1.853,1.853,0,0,0,1.252,3.488c0.121-.045,12.317-4.363,23.023-2.771A1.852,1.852,0,1,0,379.009,607.232Zm20.671,27.832a1.853,1.853,0,0,0,2.551.6c0.1-.064,10.509-6.488,15.726-8.626a1.854,1.854,0,0,0-1.408-3.43c-5.5,2.255-15.829,8.635-16.267,8.905A1.855,1.855,0,0,0,399.68,635.064Zm-19.751-16.755c-11.619-1.726-24.286,2.755-24.818,2.948a1.852,1.852,0,1,0,1.252,3.487c0.121-.045,12.317-4.362,23.023-2.77A1.853,1.853,0,0,0,379.929,618.309Zm1.839,22.155c-11.618-1.728-24.285,2.757-24.818,2.948A1.853,1.853,0,1,0,358.2,646.9c0.121-.045,12.317-4.362,23.022-2.77A1.853,1.853,0,0,0,381.768,640.464Zm-0.92-11.077c-11.618-1.728-24.285,2.754-24.817,2.947a1.853,1.853,0,1,0,1.252,3.488c0.121-.046,12.317-4.363,23.023-2.771A1.852,1.852,0,1,0,380.848,629.387Z" transform="translate(-0.063 -154.031)"/>
    </g>
    <g id="open_book-2" data-name="open book">
      <path class="cls-15" d="M92.459,732.45A87.419,87.419,0,1,1,5,819.869,87.439,87.439,0,0,1,92.459,732.45Z" transform="translate(-0.063 -154.031)"/>
      <path id="Shape_6_copy" data-name="Shape 6 copy" class="cls-16" d="M90.771,810.7a1.338,1.338,0,0,0,1.865-.308,114.263,114.263,0,0,1,8.062-10.105,1.338,1.338,0,0,0-1.891-1.892,114.231,114.231,0,0,0-8.346,10.441A1.337,1.337,0,0,0,90.771,810.7Zm-6-14.135a1.326,1.326,0,0,0,.47-0.408,114.424,114.424,0,0,1,8.063-10.1,1.338,1.338,0,0,0-1.892-1.892,114.382,114.382,0,0,0-8.346,10.44A1.337,1.337,0,0,0,84.771,796.562Zm27.217-17.112a1.335,1.335,0,0,0-.569,1.8l24.032,46.261a4.008,4.008,0,0,1-1.707,5.4l-28.451,14.739-1.418-2.729a39.256,39.256,0,0,1,9.622-7.543,68.845,68.845,0,0,1,18.609-6.707,1.333,1.333,0,0,0,.974-1.933l-27.113-52.193a1.337,1.337,0,0,0-1.53-.677s-1.037.274-2.777,0.805a1.337,1.337,0,0,0,.783,2.556c0.664-.2,1.222-0.367,1.654-0.491l25.794,49.652a75.335,75.335,0,0,0-17.626,6.616,41.9,41.9,0,0,0-10.628,8.39,31.256,31.256,0,0,0-11.9,3.279,89.8,89.8,0,0,0-16.726,11.244L47.172,808.174A87.758,87.758,0,0,1,63.86,796.857a28.938,28.938,0,0,1,10.5-2.958l24.249,46.679a1.336,1.336,0,0,0,2.324.086c0.081-.13,8.179-13.235,16.8-22.113a1.335,1.335,0,0,0,.226-1.546L92.692,768.371a1.339,1.339,0,0,0-2.18-.281,141.742,141.742,0,0,0-14.193,19.531,1.337,1.337,0,0,0,2.3,1.361,142.415,142.415,0,0,1,12.6-17.648l23.923,46.05A149.405,149.405,0,0,0,99.909,837.29L76.331,791.9a1.339,1.339,0,0,0-1.207-.722,30.9,30.9,0,0,0-12.5,3.305A86.486,86.486,0,0,0,44.591,806.9a1.333,1.333,0,0,0-.267,1.585l27.114,52.193a1.336,1.336,0,0,0,1.8.572,1.3,1.3,0,0,0,.3-0.214A85.611,85.611,0,0,1,90.974,849.05a28.875,28.875,0,0,1,10.5-2.957l1.449,2.789-28.45,14.739a4.018,4.018,0,0,1-5.405-1.716L45.034,815.643a1.335,1.335,0,1,0-2.371,1.229L66.7,863.134a6.7,6.7,0,0,0,9.008,2.86l59.272-30.708a6.678,6.678,0,0,0,2.846-9L113.79,780.022A1.339,1.339,0,0,0,111.988,779.45ZM87.074,803.58a1.342,1.342,0,0,0,1.4.1,1.328,1.328,0,0,0,.47-0.408A114.417,114.417,0,0,1,97,793.167a1.338,1.338,0,0,0-1.892-1.892,114.376,114.376,0,0,0-8.345,10.44A1.338,1.338,0,0,0,87.074,803.58Zm7.395,14.234a1.339,1.339,0,0,0,1.395.1,1.323,1.323,0,0,0,.47-0.407,114.006,114.006,0,0,1,8.063-10.1,1.338,1.338,0,0,0-1.892-1.893,114.354,114.354,0,0,0-8.346,10.441A1.337,1.337,0,0,0,94.468,817.814ZM72.961,805.026c-8.213,2.074-15.394,8.573-15.695,8.848a1.337,1.337,0,0,0,1.517,2.173,1.317,1.317,0,0,0,.287-0.2c0.068-.063,6.981-6.32,14.549-8.231A1.336,1.336,0,0,0,72.961,805.026Zm3.7,7.117c-8.212,2.075-15.394,8.573-15.695,8.848a1.337,1.337,0,0,0,1.517,2.174,1.389,1.389,0,0,0,.287-0.2c0.068-.064,6.981-6.321,14.549-8.232A1.336,1.336,0,0,0,76.658,812.143Zm21.507,12.788a1.335,1.335,0,0,0,1.865-.308,114.462,114.462,0,0,1,8.063-10.1,1.338,1.338,0,0,0-1.892-1.892,114.258,114.258,0,0,0-8.345,10.44A1.337,1.337,0,0,0,98.165,824.931Zm-17.81-5.67c-8.212,2.074-15.394,8.571-15.695,8.847a1.337,1.337,0,1,0,1.8,1.974c0.068-.064,6.982-6.321,14.549-8.232A1.336,1.336,0,1,0,80.355,819.261ZM87.75,833.5c-8.213,2.074-15.394,8.573-15.695,8.848a1.338,1.338,0,0,0,1.518,2.175,1.357,1.357,0,0,0,.287-0.2c0.068-.063,6.981-6.321,14.549-8.231A1.336,1.336,0,0,0,87.75,833.5Zm-3.7-7.117c-8.213,2.073-15.394,8.572-15.695,8.848a1.338,1.338,0,0,0,1.518,2.174,1.317,1.317,0,0,0,.287-0.2c0.068-.064,6.982-6.321,14.549-8.232A1.336,1.336,0,1,0,84.053,826.378Z" transform="translate(-0.063 -154.031)"/>
    </g>
    <g id="hat">
      <circle class="cls-17" cx="2505.483" cy="818.326" r="75.735"/>
      <path id="Shape_7_copy" data-name="Shape 7 copy" class="cls-11" d="M2531.4,1036.78a2.14,2.14,0,0,0-2.61,1.58l-2.16,8.68a2.185,2.185,0,0,0,1.57,2.64,2.393,2.393,0,0,0,.53.06,2.152,2.152,0,0,0,2.08-1.64l2.16-8.69A2.182,2.182,0,0,0,2531.4,1036.78Zm-26.37-43.487a2.089,2.089,0,0,0,.82-0.165l23.7-9.883a2.176,2.176,0,0,0,1.16-2.835,2.148,2.148,0,0,0-2.81-1.177l-22.87,9.54-60.31-25.154V962.9a2.15,2.15,0,1,0-4.3,0v2.171a2.161,2.161,0,0,0,1.33,2.006l62.46,26.053A2.089,2.089,0,0,0,2505.03,993.293Zm25.62,22.247a2.136,2.136,0,0,0-2.88-.99c-4.09,2.04-10.92,4.41-20.58,4.73V999.806a2.155,2.155,0,1,0-4.31,0v19.454c-26.75-.86-35.38-17.19-36.62-19.9V984.609a2.15,2.15,0,1,0-4.3,0v15.2a2.19,2.19,0,0,0,.15.8c0.37,0.94,9.54,23.08,42.92,23.08,11.67,0,19.84-2.85,24.65-5.25A2.162,2.162,0,0,0,2530.65,1015.54Zm6.69,23.35a2.166,2.166,0,0,0-2.16,2.17v6.51a2.155,2.155,0,1,0,4.31,0v-6.51A2.157,2.157,0,0,0,2537.34,1038.89Zm30.15-78.163a2.16,2.16,0,0,0-2.15,2.171v0.716l-25.85,10.723v-3.923l28.82-12.023a2.175,2.175,0,0,0,.01-4.013l-62.47-26.052a2.12,2.12,0,0,0-1.64,0l-62.46,26.053a2.178,2.178,0,0,0,0,4.012l62.46,26.053a2.12,2.12,0,0,0,1.64,0l22.59-9.421a2.168,2.168,0,0,0-1.65-4.01l-21.76,9.076-56.83-23.7,56.83-23.7,56.83,23.7L2537.13,966.7l-23.68-8.914a5.429,5.429,0,0,0,.2-1.4c0-3.652-3.79-6.514-8.62-6.514s-8.61,2.862-8.61,6.514,3.78,6.513,8.61,6.513a10.374,10.374,0,0,0,5.58-1.548l24.57,9.251v53.489a6.465,6.465,0,1,0,4.31,0v-12.33a26.383,26.383,0,0,0,8.5-11.24,2.165,2.165,0,0,0,.12-0.713v-15.2a2.155,2.155,0,1,0-4.31,0v14.8a22.147,22.147,0,0,1-4.31,6.555V979.033l28.82-11.956a2.173,2.173,0,0,0,1.34-2.008V962.9A2.168,2.168,0,0,0,2567.49,960.727Zm-62.46-2.171c-2.63,0-4.31-1.286-4.31-2.171s1.68-2.171,4.31-2.171,4.31,1.285,4.31,2.171S2507.66,958.556,2505.03,958.556Zm32.31,73.814a2.17,2.17,0,1,1,2.15-2.17A2.166,2.166,0,0,1,2537.34,1032.37Zm8.55,5.99a2.155,2.155,0,1,0-4.18,1.05l2.15,8.69a2.172,2.172,0,0,0,2.09,1.64,2.306,2.306,0,0,0,.52-0.06,2.177,2.177,0,0,0,1.57-2.64Z" transform="translate(-0.063 -154.031)"/>
    </g>
    <g id="diploma">
      <circle class="cls-18" cx="1496.967" cy="123.813" r="108.03"/>
      <path class="cls-3" d="M1508.96,260.138a2.169,2.169,0,0,0,2.18,2.166h21.9a2.166,2.166,0,1,0,0-4.331h-21.9A2.169,2.169,0,0,0,1508.96,260.138Zm13.13,13a2.178,2.178,0,0,0,2.19,2.166h13.14a2.166,2.166,0,1,0,0-4.331h-13.14A2.177,2.177,0,0,0,1522.09,273.133Zm-2.19-23.824a2.166,2.166,0,1,0,0-4.331h-4.38a2.166,2.166,0,1,0,0,4.331h4.38Zm-26.27,21.658a2.166,2.166,0,1,0,0,4.332h21.89a2.166,2.166,0,1,0,0-4.332h-21.89Zm10.95,60.644h-41.6a6.543,6.543,0,0,1-6.57-6.5V225.485a2.178,2.178,0,0,0-2.19-2.166,10.9,10.9,0,0,0-10.94,10.829,2.185,2.185,0,0,0,4.37,0,6.515,6.515,0,0,1,4.38-6.127v97.093a10.9,10.9,0,0,0,10.95,10.829h41.6A2.166,2.166,0,1,0,1504.58,331.611ZM1471.74,262.3h30.65a2.166,2.166,0,1,0,0-4.331h-30.65A2.166,2.166,0,1,0,1471.74,262.3Zm0-12.995h8.75a2.166,2.166,0,1,0,0-4.331h-8.75A2.166,2.166,0,1,0,1471.74,249.309Zm35.03-4.332h-17.52a2.166,2.166,0,1,0,0,4.332h17.52A2.166,2.166,0,1,0,1506.77,244.977Zm30.65-30.271h-83.2a19.618,19.618,0,0,0-19.7,19.416v0.1a19.543,19.543,0,0,0,9.85,16.807,2.206,2.206,0,0,0,2.99-.788,2.146,2.146,0,0,0-.8-2.959,15.105,15.105,0,0,1,7.66-28.247h83.2a15.263,15.263,0,0,1,15.32,15.161v90.965a6.29,6.29,0,0,1-.89,3.184,2.147,2.147,0,0,0,.77,2.965,2.207,2.207,0,0,0,3-.769,10.543,10.543,0,0,0,1.5-5.38V234.2A19.62,19.62,0,0,0,1537.42,214.706Zm6.56,99.578a13.136,13.136,0,1,0-13.13,13A13.077,13.077,0,0,0,1543.98,314.284Zm-13.13,8.664a8.664,8.664,0,1,1,8.76-8.664A8.722,8.722,0,0,1,1530.85,322.948Zm-3.95,6.5a2.2,2.2,0,0,0-2.99.793l-4.72,8.081-0.75-1.118a2.174,2.174,0,0,0-1.69-.968l-1.35-.08,4.79-8.208a2.163,2.163,0,0,0-.8-2.959,2.21,2.21,0,0,0-3,.793l-6.56,11.243a2.142,2.142,0,0,0-.03,2.109,2.191,2.191,0,0,0,1.8,1.135l3.79,0.225,2.1,3.138a2.18,2.18,0,0,0,1.82.973h0.07a2.2,2.2,0,0,0,1.83-1.083l6.49-11.115A2.155,2.155,0,0,0,1526.9,329.447Zm18.46-3.565a2.2,2.2,0,0,0-2.99-.792,2.157,2.157,0,0,0-.81,2.958l4.74,8.107-1.35.08a2.2,2.2,0,0,0-1.7.968l-0.74,1.118-4.69-8.04a2.216,2.216,0,0,0-3-.793,2.164,2.164,0,0,0-.8,2.959l6.47,11.074a2.2,2.2,0,0,0,1.83,1.083h0.06a2.212,2.212,0,0,0,1.83-.972l2.09-3.137,3.8-.227a2.172,2.172,0,0,0,1.79-1.135,2.143,2.143,0,0,0-.03-2.109ZM1471.74,275.3h13.13a2.166,2.166,0,1,0,0-4.331h-13.13A2.166,2.166,0,1,0,1471.74,275.3Zm0,13h26.27a2.166,2.166,0,1,0,0-4.331h-26.27A2.166,2.166,0,1,0,1471.74,288.294Zm0.23,26.958a2.2,2.2,0,0,0,2.93.971,2.142,2.142,0,0,0,.98-2.907c-2.16-4.288-2.65-8.135-1.3-10.294a4.055,4.055,0,0,1,3.72-1.733,1.769,1.769,0,0,1,1.68.7c1.63,2.326.08,9.41-1.54,13.7a2.153,2.153,0,0,0,.87,2.581,2.211,2.211,0,0,0,2.73-.29c0.94-.922,1.95-1.843,2.83-2.59v1.059a2.158,2.158,0,0,0,1.35,2,2.207,2.207,0,0,0,2.39-.468,27,27,0,0,1,3.14-2.653,1.448,1.448,0,0,0-.08.156,2.137,2.137,0,0,0,.1,2.105,2.194,2.194,0,0,0,1.86,1.027h8.76a2.166,2.166,0,1,0,0-4.332h-5.7a4.119,4.119,0,0,0-.4-2.924,3.041,3.041,0,0,0-2.66-1.407,8.614,8.614,0,0,0-4.4,1.823,2.492,2.492,0,0,0-1.53-2.072c-0.59-.239-1.34-0.55-3.17.535,0.72-3.732.93-8.033-.95-10.715a6.1,6.1,0,0,0-5.28-2.566,8.4,8.4,0,0,0-7.45,3.788C1468.67,304.241,1469.07,309.528,1471.97,315.252Zm58.88-29.123a2.178,2.178,0,0,0-2.19-2.166h-21.89a2.166,2.166,0,1,0,0,4.331h21.89A2.178,2.178,0,0,0,1530.85,286.129Z" transform="translate(-0.063 -154.031)"/>
    </g>
    <g id="diploma_copy" data-name="diploma copy">
      <circle class="cls-18" cx="2673.017" cy="216.063" r="95.64"/>
      <path class="cls-3" d="M2682.6,353.768a1.92,1.92,0,0,0,2.05,1.788L2704,354.3a1.918,1.918,0,1,0-.25-3.827l-19.34,1.258A1.927,1.927,0,0,0,2682.6,353.768Zm12.35,10.726a1.93,1.93,0,0,0,2.06,1.788l11.6-.755a1.918,1.918,0,1,0-.25-3.827l-11.6.755A1.926,1.926,0,0,0,2694.95,364.494Zm-3.31-20.922a1.917,1.917,0,1,0-.24-3.827l-3.87.252a1.918,1.918,0,1,0,.25,3.827Zm-21.96,20.644a1.918,1.918,0,1,0,.25,3.827l19.34-1.258a1.918,1.918,0,1,0-.25-3.827Zm13.16,52.948-36.75,2.391a5.8,5.8,0,0,1-6.18-5.363l-5.73-88.019a1.914,1.914,0,0,0-2.05-1.788,9.642,9.642,0,0,0-9.05,10.2,1.939,1.939,0,0,0,3.87-.251,5.752,5.752,0,0,1,3.51-5.665l5.58,85.778a9.648,9.648,0,0,0,10.29,8.939l36.75-2.391A1.917,1.917,0,1,0,2682.84,417.164Zm-33-59.343,27.08-1.762a1.918,1.918,0,1,0-.25-3.827l-27.08,1.762A1.918,1.918,0,1,0,2649.84,357.821Zm-0.75-11.481,7.74-.5a1.918,1.918,0,1,0-.25-3.827l-7.74.5A1.918,1.918,0,1,0,2649.09,346.34Zm30.7-5.84-15.47,1.006a1.918,1.918,0,1,0,.25,3.827l15.47-1.006A1.918,1.918,0,1,0,2679.79,340.5Zm25.34-28.506-73.5,4.781a17.368,17.368,0,0,0-16.29,18.287v0.089a17.327,17.327,0,0,0,9.67,14.283,1.956,1.956,0,0,0,2.6-.868,1.9,1.9,0,0,0-.88-2.569,13.373,13.373,0,0,1,5.15-25.4l73.5-4.781a13.514,13.514,0,0,1,14.41,12.514l5.23,80.365a5.565,5.565,0,0,1-.61,2.864,1.906,1.906,0,0,0,.86,2.575,1.949,1.949,0,0,0,2.6-.852,9.316,9.316,0,0,0,1.01-4.839l-5.22-80.365A17.373,17.373,0,0,0,2705.13,311.994Zm11.52,87.6a11.63,11.63,0,1,0-10.85,12.235A11.576,11.576,0,0,0,2716.65,399.592ZM2705.55,408a7.67,7.67,0,1,1,7.24-8.157A7.725,7.725,0,0,1,2705.55,408Zm-3.12,5.97a1.955,1.955,0,0,0-2.6.872l-3.7,7.41-0.72-.944a1.949,1.949,0,0,0-1.56-.758l-1.2.007,3.77-7.528a1.91,1.91,0,0,0-.88-2.567,1.953,1.953,0,0,0-2.6.872l-5.15,10.31a1.908,1.908,0,0,0,.09,1.865,1.942,1.942,0,0,0,1.66.9l3.36-.019,2.03,2.652a1.948,1.948,0,0,0,1.67.755l0.06,0a1.956,1.956,0,0,0,1.56-1.062l5.09-10.193A1.91,1.91,0,0,0,2702.43,413.97Zm16.11-4.211a1.954,1.954,0,0,0-2.69-.528,1.911,1.911,0,0,0-.54,2.66l4.65,6.89-1.19.148a1.965,1.965,0,0,0-1.45.953l-0.59,1.03-4.6-6.833a1.957,1.957,0,0,0-2.69-.529,1.9,1.9,0,0,0-.54,2.66l6.34,9.412a1.96,1.96,0,0,0,1.68.852l0.06,0a1.938,1.938,0,0,0,1.56-.964l1.67-2.891,3.34-.419a1.928,1.928,0,0,0,1.52-1.106,1.9,1.9,0,0,0-.15-1.861ZM2650.59,369.3l11.6-.755a1.917,1.917,0,1,0-.25-3.826l-11.6.755A1.917,1.917,0,1,0,2650.59,369.3Zm0.74,11.481,23.21-1.51a1.917,1.917,0,1,0-.25-3.826l-23.21,1.509A1.918,1.918,0,1,0,2651.33,380.782Zm1.76,23.8a1.945,1.945,0,0,0,2.65.689,1.9,1.9,0,0,0,.69-2.624c-2.16-3.664-2.81-7.035-1.74-9.02a3.592,3.592,0,0,1,3.19-1.745,1.6,1.6,0,0,1,1.53.524c1.57,1.961.61,8.309-.58,12.191a1.914,1.914,0,0,0,.92,2.231,1.951,1.951,0,0,0,2.39-.413c0.78-.869,1.62-1.741,2.36-2.452l0.06,0.936a1.907,1.907,0,0,0,1.3,1.688,1.96,1.96,0,0,0,2.09-.55,23.7,23.7,0,0,1,2.61-2.524c-0.02.049-.04,0.1-0.06,0.142a1.922,1.922,0,0,0,1.92,2.654l7.73-.5a1.917,1.917,0,1,0-.24-3.827l-5.04.328a3.631,3.631,0,0,0-.52-2.561,2.693,2.693,0,0,0-2.43-1.091,7.552,7.552,0,0,0-3.78,1.864,2.216,2.216,0,0,0-1.48-1.743c-0.53-.177-1.21-0.409-2.76.655,0.42-3.338.36-7.15-1.46-9.411a5.38,5.38,0,0,0-4.81-1.964,7.408,7.408,0,0,0-6.36,3.775C2649.54,395.047,2650.2,399.7,2653.09,404.585Zm50.34-29.113a1.93,1.93,0,0,0-2.06-1.788l-19.34,1.258a1.918,1.918,0,1,0,.25,3.827l19.34-1.258A1.927,1.927,0,0,0,2703.43,375.472Z" transform="translate(-0.063 -154.031)"/>
    </g>
    <g id="book">
      <circle class="cls-19" cx="1925.188" cy="193.719" r="106.22"/>
      <path class="cls-6" d="M1920.58,342.665l10.67,4.387a1.927,1.927,0,0,0,1.47-3.563l-10.68-4.387A1.925,1.925,0,0,0,1920.58,342.665Zm68.03-13.692-53.38-21.935a1.927,1.927,0,0,0-1.47,3.563l51.61,21.2-32.97,80.161a5.934,5.934,0,0,1-7.54,3.15l-74.73-30.709a5.909,5.909,0,0,1-3.14-7.537l33.64-81.8a10.406,10.406,0,0,0,2.96,2.914l-33.05,80.343a1.924,1.924,0,1,0,3.56,1.462l33.71-81.942a1.937,1.937,0,0,0-1.04-2.509c-0.89-.378-5.22-2.513-3.15-7.541l0.73-1.782a3.852,3.852,0,0,1,5.02-2.1l83.64,34.365a1.925,1.925,0,0,0,1.46-3.563l-83.63-34.365a7.716,7.716,0,0,0-10.05,4.2l-37.36,90.849a9.747,9.747,0,0,0,5.23,12.563l74.73,30.709a9.752,9.752,0,0,0,12.56-5.251l33.71-81.942A1.932,1.932,0,0,0,1988.61,328.973Zm0.42-6.075a1.933,1.933,0,0,0-1.05-2.513l-56.94-23.4a1.923,1.923,0,0,0-2.51,1.05l-7.02,17.076-2.4-5.761a1.925,1.925,0,0,0-2.52-1.034l-5.76,2.408,7.02-17.076a1.918,1.918,0,0,0-1.04-2.512l-7.12-2.925a1.927,1.927,0,0,0-1.47,3.562l5.34,2.194-8.06,19.595a1.922,1.922,0,0,0,2.52,2.507l8.27-3.458,3.45,8.274a1.927,1.927,0,0,0,3.56-.012l8.06-19.594,55.16,22.666A1.927,1.927,0,0,0,1989.03,322.9Zm-75.78,2.179-11.72,28.5a1.92,1.92,0,0,0,1.04,2.513l39.15,16.085a1.923,1.923,0,0,0,2.51-1.05l11.72-28.5a1.919,1.919,0,0,0-1.04-2.512l-39.15-16.086A1.924,1.924,0,0,0,1913.25,325.077Zm2.82,3.244,35.59,14.624-10.25,24.939-35.59-14.624Zm20.83,25.219-17.79-7.312a1.925,1.925,0,0,0-1.46,3.562l17.79,7.312A1.925,1.925,0,0,0,1936.9,353.54Z" transform="translate(-0.063 -154.031)"/>
    </g>
    <g id="books">
      <circle class="cls-20" cx="1540.048" cy="432.766" r="95.3"/>
      <path class="cls-21" d="M1568.92,569.974l-3.82-.783a1.944,1.944,0,1,0-.78,3.809l3.82,0.782A1.944,1.944,0,1,0,1568.92,569.974Zm-1.57,7.617-3.82-.783a1.944,1.944,0,1,0-.78,3.809l3.82,0.782A1.944,1.944,0,1,0,1567.35,577.591Zm3.14-15.234-3.82-.783a1.944,1.944,0,1,0-.78,3.809l3.82,0.782A1.944,1.944,0,1,0,1570.49,562.357Zm-12.56,60.935-3.82-.782a1.944,1.944,0,1,0-.78,3.808l3.82,0.783A1.944,1.944,0,1,0,1557.93,623.292Zm-29.47-69.544L1517,551.4a1.952,1.952,0,0,0-2.3,1.513l-5.5,26.659a1.954,1.954,0,0,0,1.52,2.3l11.46,2.348a1.957,1.957,0,0,0,2.31-1.513l5.49-26.659A1.94,1.94,0,0,0,1528.46,553.748Zm-7.4,26.269-7.64-1.566,4.71-22.85,7.64,1.565Zm-5.16,34.667-11.46-2.348a1.944,1.944,0,1,0-.78,3.809l11.46,2.347A1.944,1.944,0,1,0,1515.9,614.684Zm-1.57,7.617-11.46-2.348a1.944,1.944,0,1,0-.78,3.809l11.46,2.347A1.944,1.944,0,1,0,1514.33,622.3Zm42.03,8.608-3.82-.782a1.944,1.944,0,1,0-.78,3.808l3.82,0.783A1.944,1.944,0,1,0,1556.36,630.909Zm22.93,4.7-7.65-1.565a1.944,1.944,0,1,0-.78,3.808l7.64,1.565A1.945,1.945,0,1,0,1579.29,635.605Zm-26.38-74.865a1.955,1.955,0,0,0-1.52-2.3l-7.64-1.565a1.957,1.957,0,0,0-2.31,1.513l-5.49,26.659a1.94,1.94,0,0,0,1.52,2.3l7.64,1.565a1.952,1.952,0,0,0,2.3-1.513Zm-8.93,23.972-3.82-.783,4.71-22.85,3.82,0.782Zm36.88,43.276-7.65-1.565a1.944,1.944,0,1,0-.78,3.808l7.64,1.565A1.945,1.945,0,1,0,1580.86,627.988Zm-43.6-.992-7.64-1.565a1.945,1.945,0,1,0-.79,3.809l7.64,1.565A1.945,1.945,0,1,0,1537.26,627Zm40.66-23.424a1.957,1.957,0,0,0,2.31-1.513l3.92-19.042a1.95,1.95,0,0,0-3.82-.783l-3.92,19.043A1.94,1.94,0,0,0,1577.92,603.572Zm13.87-18.99a1.95,1.95,0,0,0-3.82-.783l-3.92,19.042a1.95,1.95,0,0,0,3.82.783Zm8.59-31.981-11.47-2.348a1.944,1.944,0,1,0-.78,3.809l11.46,2.347a1.949,1.949,0,0,1,1.52,2.3L1583.05,646.3a1.949,1.949,0,0,1-2.3,1.513l-17.19-3.522,16.48-79.978,11.47,2.348a1.944,1.944,0,1,0,.78-3.808l-11.46-2.348,3.53-17.138a5.772,5.772,0,0,0-4.55-6.887l-11.46-2.348a5.86,5.86,0,0,0-6.91,4.539L1540.63,639.6l-19.1-3.913,20.41-99.02,13.37,2.739a1.945,1.945,0,1,0,.79-3.809l-13.37-2.739,0.39-1.9a5.771,5.771,0,0,0-4.56-6.887l-19.1-3.913a5.86,5.86,0,0,0-6.91,4.539l-3.53,17.138-9.55-1.956a1.945,1.945,0,1,0-.79,3.808l9.56,1.957-17.28,83.786-13.37-2.739a1.955,1.955,0,0,1-1.52-2.295l18.84-91.4a1.959,1.959,0,0,1,2.31-1.513l7.64,1.566a1.944,1.944,0,1,0,.78-3.809l-7.64-1.565a5.859,5.859,0,0,0-6.91,4.539l-18.84,91.4a5.843,5.843,0,0,0,4.56,6.887l103.16,21.129a5.858,5.858,0,0,0,6.91-4.538l18.05-87.595A5.837,5.837,0,0,0,1600.38,552.6Zm-82.67,82.3-22.92-4.695,19.62-95.212,17.19,3.522a1.945,1.945,0,1,0,.79-3.809l-17.19-3.521,1.17-5.713a1.932,1.932,0,0,1,2.31-1.513l19.1,3.913a1.9,1.9,0,0,1,1.52,2.3L1517.71,634.9h0Zm42.03,8.609-15.29-3.131,18.84-91.4,9.56,1.956a1.944,1.944,0,1,0,.78-3.808l-9.55-1.956,1.18-5.713a1.926,1.926,0,0,1,2.3-1.513l11.46,2.348a1.9,1.9,0,0,1,1.52,2.295Zm-70.58-34.3-3.82-.783a1.945,1.945,0,0,0-.79,3.809l3.82,0.782A1.945,1.945,0,1,0,1489.16,609.206Zm-1.57,7.617-3.82-.783a1.945,1.945,0,0,0-.79,3.809l3.82,0.782A1.945,1.945,0,1,0,1487.59,616.823Zm51.24,2.557-7.64-1.566a1.945,1.945,0,1,0-.79,3.809l7.64,1.565A1.945,1.945,0,1,0,1538.83,619.38ZM1498.58,563.5l-3.82-.782a1.945,1.945,0,1,0-.79,3.808l3.82,0.783A1.945,1.945,0,1,0,1498.58,563.5Zm-1.57,7.617-3.82-.782a1.945,1.945,0,1,0-.79,3.808l3.82,0.783A1.945,1.945,0,1,0,1497.01,571.121Z" transform="translate(-0.063 -154.031)"/>
    </g>
    <g id="books_copy" data-name="books copy">
      <ellipse class="cls-22" cx="2710.517" cy="651.172" rx="95.3" ry="95.297"/>
      <path class="cls-23" d="M2739.39,788.365l-3.82-.783a1.945,1.945,0,1,0-.79,3.808l3.83,0.783A1.944,1.944,0,1,0,2739.39,788.365Zm-1.57,7.616L2734,795.2a1.945,1.945,0,1,0-.79,3.808l3.83,0.783A1.944,1.944,0,1,0,2737.82,795.981Zm3.14-15.234-3.82-.782a1.945,1.945,0,1,0-.79,3.808l3.83,0.783A1.944,1.944,0,1,0,2740.96,780.747Zm-12.56,60.936-3.82-.782a1.945,1.945,0,1,0-.79,3.808l3.83,0.782A1.944,1.944,0,1,0,2728.4,841.683Zm-29.47-69.544-11.46-2.348a1.947,1.947,0,0,0-2.3,1.513l-5.5,26.66a1.954,1.954,0,0,0,1.52,2.295l11.46,2.348a1.957,1.957,0,0,0,2.31-1.513l5.49-26.659A1.94,1.94,0,0,0,2698.93,772.139Zm-7.4,26.268-7.64-1.565,4.71-22.851,7.64,1.565Zm-5.16,34.668-11.46-2.348a1.944,1.944,0,1,0-.78,3.808l11.46,2.348A1.944,1.944,0,1,0,2686.37,833.075Zm-1.57,7.617-11.46-2.348a1.944,1.944,0,1,0-.78,3.808l11.46,2.348A1.944,1.944,0,1,0,2684.8,840.692Zm42.03,8.608-3.82-.783a1.945,1.945,0,0,0-.79,3.809l3.83,0.782A1.944,1.944,0,1,0,2726.83,849.3Zm22.92,4.7-7.64-1.565a1.944,1.944,0,1,0-.78,3.809l7.64,1.565A1.944,1.944,0,1,0,2749.75,854Zm-26.38-74.865a1.94,1.94,0,0,0-1.51-2.295l-7.64-1.565a1.956,1.956,0,0,0-2.31,1.513l-5.49,26.659a1.939,1.939,0,0,0,1.52,2.295l7.64,1.565a1.951,1.951,0,0,0,2.3-1.512Zm-8.92,23.973-3.82-.783,4.71-22.851,3.82,0.783Zm36.87,43.276-7.64-1.566a1.944,1.944,0,1,0-.78,3.809l7.64,1.565A1.944,1.944,0,1,0,2751.32,846.379Zm-43.59-.992-7.64-1.565a1.945,1.945,0,1,0-.79,3.808l7.64,1.565A1.945,1.945,0,1,0,2707.73,845.387Zm40.66-23.424a1.957,1.957,0,0,0,2.31-1.513l3.92-19.043a1.95,1.95,0,0,0-3.82-.782l-3.92,19.042A1.941,1.941,0,0,0,2748.39,821.963Zm13.87-18.991a1.95,1.95,0,0,0-3.82-.782l-3.92,19.042a1.95,1.95,0,0,0,3.82.783Zm8.59-31.98-11.47-2.348a1.944,1.944,0,1,0-.78,3.808l11.46,2.348a1.956,1.956,0,0,1,1.52,2.3l-18.06,87.6a1.948,1.948,0,0,1-2.3,1.512l-17.19-3.521,16.48-79.978,11.46,2.348a1.945,1.945,0,1,0,.79-3.809L2751.3,778.9l3.53-17.139a5.771,5.771,0,0,0-4.55-6.886l-11.47-2.348a5.844,5.844,0,0,0-6.9,4.539L2711.1,857.987l-19.1-3.913,20.41-99.021,13.37,2.739a1.945,1.945,0,1,0,.79-3.808l-13.38-2.739,0.4-1.9a5.771,5.771,0,0,0-4.56-6.887l-19.1-3.913a5.859,5.859,0,0,0-6.91,4.539l-3.53,17.138-9.55-1.956a1.945,1.945,0,1,0-.79,3.808l9.55,1.956-17.27,83.787-13.37-2.739a1.956,1.956,0,0,1-1.52-2.3l18.84-91.4a1.959,1.959,0,0,1,2.31-1.513l7.64,1.565a1.944,1.944,0,1,0,.78-3.808l-7.64-1.565a5.858,5.858,0,0,0-6.91,4.538L2642.72,842a5.843,5.843,0,0,0,4.56,6.886l103.16,21.13a5.844,5.844,0,0,0,6.9-4.539l18.06-87.595A5.836,5.836,0,0,0,2770.85,770.992Zm-82.67,82.3-22.93-4.7,19.63-95.211,17.19,3.521a1.945,1.945,0,1,0,.79-3.808l-17.2-3.522,1.18-5.713a1.926,1.926,0,0,1,2.3-1.512l19.11,3.912a1.905,1.905,0,0,1,1.52,2.3l-21.59,104.733h0Zm42.03,8.608-15.29-3.13,18.84-91.4,9.56,1.956a1.944,1.944,0,1,0,.78-3.808l-9.55-1.957,1.18-5.712a1.926,1.926,0,0,1,2.3-1.513l11.46,2.347a1.905,1.905,0,0,1,1.52,2.3Zm-70.58-34.3-3.82-.783a1.945,1.945,0,1,0-.79,3.808l3.82,0.783A1.945,1.945,0,1,0,2659.63,827.6Zm-1.57,7.617-3.82-.783a1.945,1.945,0,1,0-.79,3.808l3.82,0.783A1.945,1.945,0,1,0,2658.06,835.214Zm51.24,2.556-7.64-1.565a1.945,1.945,0,1,0-.79,3.808l7.64,1.566A1.945,1.945,0,0,0,2709.3,837.77ZM2669.05,781.9l-3.82-.783a1.945,1.945,0,1,0-.79,3.809l3.82,0.782A1.945,1.945,0,1,0,2669.05,781.9Zm-1.57,7.617-3.82-.783a1.945,1.945,0,1,0-.79,3.809l3.82,0.782A1.945,1.945,0,1,0,2667.48,789.512Z" transform="translate(-0.063 -154.031)"/>
    </g>
    <g id="library">
      <path id="Shape_8_copy" data-name="Shape 8 copy" class="cls-6" d="M1460.99,776.112a1.952,1.952,0,0,0-2.39,1.38l-3.03,11.312a1.952,1.952,0,0,0,1.38,2.39l7.55,2.02a1.952,1.952,0,0,0,2.39-1.38l3.04-11.312a1.95,1.95,0,0,0-1.39-2.39Zm2.63,12.827-3.77-1.01,2.02-7.541,3.78,1.01Zm-57.77-3.337a1.952,1.952,0,0,0,2.39-1.38l7.59-28.279,83.05,22.225-7.59,28.279a1.956,1.956,0,0,0,3.78,1.01l8.09-30.165a1.952,1.952,0,0,0-1.38-2.39l-43.41-11.617,3.03-11.312,9.44,2.526-1.01,3.77-5.67-1.515a1.951,1.951,0,0,0-1.01,3.77l7.55,2.021a1.959,1.959,0,0,0,2.4-1.38l2.02-7.542a1.952,1.952,0,0,0-1.38-2.39l-13.21-3.536a1.96,1.96,0,0,0-2.4,1.38l-3.54,13.2-39.64-10.607a1.953,1.953,0,0,0-2.39,1.38l-8.1,30.165A1.949,1.949,0,0,0,1405.85,785.6Zm74.02-4.439a1.952,1.952,0,0,0-2.39,1.38l-3.04,11.312a1.952,1.952,0,0,0,1.38,2.39l7.55,2.02a1.958,1.958,0,0,0,2.4-1.38l3.03-11.311a1.953,1.953,0,0,0-1.38-2.391Zm2.63,12.827-3.78-1.01,2.03-7.541,3.77,1.01Zm5.32,78.207-109.49-29.3a1.951,1.951,0,1,0-1.01,3.77l109.48,29.3A1.953,1.953,0,1,0,1487.82,872.2Zm-38.5-22.424a1.964,1.964,0,0,0,2.4-1.38L1458.8,822a1.965,1.965,0,0,0-.2-1.481c-0.13-.225-3.28-5.513-13.39-8.216s-15.48.3-15.7,0.43a1.933,1.933,0,0,0-.91,1.185l-7.09,26.394a1.956,1.956,0,0,0,3.78,1.01l6.84-25.481c1.36-.483,4.79-1.294,10.17-0.2l-5.04,18.783a1.953,1.953,0,1,0-1.02,3.771l-1.51,5.656a1.951,1.951,0,0,0,3.77,1.01l1.52-5.656a1.951,1.951,0,1,0,1.01-3.77l5.04-18.784c5.22,1.745,7.77,4.162,8.71,5.252l-6.84,25.484A1.952,1.952,0,0,0,1449.32,849.773Zm-37.38-3.941a1.952,1.952,0,0,0,1.38,2.39l41.53,11.112a1.951,1.951,0,1,0,1.01-3.77l-41.53-11.112A1.952,1.952,0,0,0,1411.94,845.832Zm-24.03-8.452a1.953,1.953,0,1,0-1.02,3.771l18.88,5.051a1.952,1.952,0,0,0,1.01-3.771l-1.88-.5,12.14-45.247,60.4,16.164L1465.3,858.09l-1.89-.506a1.952,1.952,0,0,0-1.01,3.771l18.88,5.051a1.952,1.952,0,0,0,1.01-3.771l-1.89-.5,12.14-45.246,1.89,0.5a1.952,1.952,0,0,0,1.01-3.771l-94.38-25.255a1.951,1.951,0,1,0-1.01,3.77l1.88,0.5-12.14,45.247Zm93.3-23.527,7.56,2.02-12.14,45.247-7.56-2.02Zm-75.5-20.2,7.55,2.02-12.14,45.247-7.55-2.021Zm17.53-27.639a1.952,1.952,0,0,0-2.39,1.38l-3.04,11.311a1.953,1.953,0,0,0,1.38,2.391l7.55,2.02a1.958,1.958,0,0,0,2.4-1.38l3.03-11.312a1.952,1.952,0,0,0-1.38-2.39Zm2.63,12.827-3.78-1.011,2.03-7.541,3.77,1.011Zm16.25-7.776a1.963,1.963,0,0,0-2.4,1.38l-3.03,11.312a1.952,1.952,0,0,0,1.38,2.39l7.55,2.02a1.948,1.948,0,0,0,2.39-1.38l3.04-11.312a1.952,1.952,0,0,0-1.38-2.39Zm2.63,12.827-3.78-1.01,2.02-7.542,3.78,1.011Z" transform="translate(-0.063 -154.031)"/>
    </g>
    <g id="globe_copy_2" data-name="globe copy 2">
      <circle class="cls-24" cx="611.953" cy="682.907" r="128.422"/>
      <path class="cls-6" d="M554.61,821.983a2.365,2.365,0,0,0,2.936-1.616,56.943,56.943,0,0,1,66.547-39.751,12.407,12.407,0,0,0,2.335,7.262c0.263,0.418.621,0.987,0.663,1.065,0,8.511-1.737,9.9-1.718,9.9-3.842,0-10.147,3.437-12.517,7.868a7.59,7.59,0,0,0,.329,8.1,57.31,57.31,0,0,1,3.079,5.47c2.015,3.907,4.25,8.24,7.76,8.24a5.359,5.359,0,0,0,2.41-.629c2.764-1.383,4.745-5.318,6.661-9.12a30.185,30.185,0,0,1,2.818-4.915c2.4,0.328,3.581,2.506,5.171,5.957,1.171,2.539,2.382,5.162,4.762,6.353,4,2,17.176-.1,24.455-3.19a2.373,2.373,0,0,0,1.36-2.8A62.033,62.033,0,0,0,635.512,779.2a2.372,2.372,0,1,0-1.8,4.39,57.307,57.307,0,0,1,32.776,35.779c-7.376,2.6-16.842,3.386-18.527,2.553-0.891-.446-1.787-2.385-2.576-4.1-1.652-3.584-3.916-8.491-9.694-8.748-2.987-.18-4.669,3.261-6.833,7.559-1.271,2.52-3.188,6.329-4.717,7.082-0.879-.207-2.626-3.593-3.669-5.615a61.378,61.378,0,0,0-3.347-5.924,2.851,2.851,0,0,1-.094-3.227c1.628-3.043,6.513-5.361,8.338-5.361,4.285,0,6.458-4.927,6.458-14.648a6.811,6.811,0,0,0-1.391-3.6c-1.005-1.593-2.041-3.242-1.427-6.057a2.373,2.373,0,0,0-1.735-2.807A61.679,61.679,0,0,0,553,819.043,2.37,2.37,0,0,0,554.61,821.983ZM640.6,837.554c-0.685.194-1.622,0.465-1.871,0.484-3.275,0-5.351,2.539-6.866,4.393-0.578.707-1.623,1.976-2.289,2a7.413,7.413,0,0,0-3.347-.807c-2.794,0-5.214,1.663-5.755,3.961-0.381,1.614.181,3.823,2.894,5.183,3.849,1.927,7.829,3.918,9.6,5.691a8.212,8.212,0,0,0,5.783,1.92c3.733,0,8.7-1.816,10.4-6.937,0.673-2.018,2.283-3.56,3.84-5.051,1.806-1.734,3.515-3.369,3.539-5.717a5.468,5.468,0,0,0-1.821-3.937,9.154,9.154,0,0,0-6.745-2.513A27.291,27.291,0,0,0,640.6,837.554Zm11.187,5.052a10.2,10.2,0,0,1-2.077,2.352c-1.789,1.713-4.015,3.847-5.058,6.979-1.17,3.513-5.124,3.691-5.9,3.691a4.5,4.5,0,0,1-2.429-.527c-2.318-2.321-6.454-4.393-10.834-6.583l-0.026-.012a2.636,2.636,0,0,1,2,.166,5.191,5.191,0,0,0,2.335.579c2.624,0,4.28-2.027,5.74-3.814,1.07-1.3,2.172-2.653,3.2-2.653a12.616,12.616,0,0,0,3.172-.667,23.249,23.249,0,0,1,6.06-1.151,4.567,4.567,0,0,1,3.392,1.123A4.183,4.183,0,0,1,651.791,842.606Zm21.416-14.825a2.37,2.37,0,1,0-4.7.65,57.927,57.927,0,0,1,.543,7.889,56.986,56.986,0,0,1-56.2,56.952c-8.428-5.389-16.328-11.992-12.808-20.212,6.319-14.769.438-20.272-2.074-22.627l-0.472-.448a11.19,11.19,0,0,0-2.242-1.635c-1.735-1.042-2.2-1.322-1.271-4.12a8.927,8.927,0,0,1,2.382-3.728c2.193-2.321,3.868-4.63,3.868-11.342a8.945,8.945,0,0,0-5.43-8.548c-3.913-1.733-9.139-1.12-11.9,1.391a5.37,5.37,0,0,0-1.591,5.861c1.69,5.067-2.171,12.391-9.386,17.809-1.91,1.433-2.479.776-2.82,0.384-2.117-2.442-1.953-9.388-.216-11.125a3.518,3.518,0,0,0,.924-3.98c-1.919-4.36-14.166-4.023-16.6-3.909a2.375,2.375,0,0,0-2.245,2.082,56.172,56.172,0,0,0-.429,7.2,61.546,61.546,0,0,0,46.794,59.9,2.372,2.372,0,0,0,1.135-4.606,56.812,56.812,0,0,1-43.188-55.3c0-1.647.057-3.1,0.182-4.585a35.283,35.283,0,0,1,9.154.992c-2.719,4.25-2.42,12.606.9,16.441,2.382,2.749,5.838,2.862,9.246.3,9.106-6.837,13.439-15.91,11.038-23.106a0.668,0.668,0,0,1,.284-0.852c1.247-1.134,4.421-1.613,6.795-.56a4.178,4.178,0,0,1,2.608,4.208c0,5.356-1.079,6.5-2.572,8.081a13.528,13.528,0,0,0-3.437,5.489c-2.13,6.41,1.287,8.465,3.33,9.692a7.345,7.345,0,0,1,1.33.919c0.173,0.173.369,0.358,0.585,0.56,2.086,1.95,5.964,5.584.955,17.286-5.678,13.269,8.964,22.52,15.217,26.471a2.388,2.388,0,0,0,1.266.365,61.734,61.734,0,0,0,61.623-61.7A62.468,62.468,0,0,0,673.207,827.781Zm-21.428,61.862a65.759,65.759,0,0,1-39.608,13.126,66.481,66.481,0,0,1-66.364-66.449,2.37,2.37,0,1,0-4.74,0A71.226,71.226,0,0,0,609.8,907.456v7.179a2.37,2.37,0,1,0,4.74,0v-7.214a70.342,70.342,0,0,0,40.07-13.971A2.372,2.372,0,0,0,651.779,889.643Zm-37.795-18.872c-2.958,0-6.427,3.408-7.693,6.467-0.988,2.39-.694,4.619.808,6.123a8.559,8.559,0,0,0,11.526,0c1.574-1.576,1.958-3.892,1.081-6.519a13.539,13.539,0,0,0-3.126-5.022A3.643,3.643,0,0,0,613.984,870.771Zm1.29,9.232a4.145,4.145,0,0,1-4.812.026,2.886,2.886,0,0,1,.6-1.735,7.881,7.881,0,0,1,2.6-2.643,8.745,8.745,0,0,1,1.553,2.691A1.951,1.951,0,0,1,615.274,880Z" transform="translate(-0.063 -154.031)"/>
    </g>
    <g id="globe_copy" data-name="globe copy">
      <circle class="cls-25" cx="2315.488" cy="128.391" r="120.67"/>
      <path class="cls-6" d="M2261.62,268.369a2.223,2.223,0,0,0,2.76-1.519,53.493,53.493,0,0,1,62.52-37.345,11.657,11.657,0,0,0,2.19,6.822c0.25,0.393.59,0.928,0.63,1,0,8-1.64,9.3-1.62,9.3-3.61,0-9.53,3.228-11.76,7.391a7.157,7.157,0,0,0,.31,7.61,51.335,51.335,0,0,1,2.89,5.139c1.9,3.67,4,7.741,7.29,7.741a5.086,5.086,0,0,0,2.27-.59c2.6-1.3,4.46-5,6.26-8.569a28.293,28.293,0,0,1,2.64-4.618c2.26,0.308,3.37,2.355,4.86,5.6,1.1,2.386,2.24,4.849,4.48,5.969,3.76,1.884,16.13-.09,22.97-3a2.233,2.233,0,0,0,1.28-2.633,58.28,58.28,0,0,0-33.96-38.5,2.229,2.229,0,1,0-1.69,4.125,53.835,53.835,0,0,1,30.79,33.613c-6.93,2.446-15.82,3.182-17.4,2.4-0.84-.42-1.68-2.241-2.42-3.849-1.56-3.367-3.68-7.977-9.11-8.218-2.81-.17-4.39,3.063-6.42,7.1-1.19,2.368-3,5.946-4.43,6.653-0.83-.193-2.47-3.375-3.45-5.275a56.6,56.6,0,0,0-3.14-5.565,2.664,2.664,0,0,1-.09-3.032c1.53-2.859,6.12-5.037,7.83-5.037,4.03,0,6.07-4.629,6.07-13.761a6.416,6.416,0,0,0-1.31-3.378c-0.94-1.5-1.91-3.045-1.34-5.69a2.224,2.224,0,0,0-1.63-2.638,57.955,57.955,0,0,0-69.79,39.984A2.235,2.235,0,0,0,2261.62,268.369ZM2342.41,283a17.907,17.907,0,0,1-1.76.455c-3.07,0-5.02,2.386-6.45,4.127-0.54.665-1.52,1.857-2.15,1.875a6.932,6.932,0,0,0-3.14-.758c-2.63,0-4.9,1.563-5.41,3.722-0.36,1.516.17,3.591,2.72,4.869,3.62,1.81,7.36,3.681,9.02,5.347a7.7,7.7,0,0,0,5.43,1.8c3.51,0,8.17-1.7,9.77-6.517,0.64-1.9,2.15-3.344,3.61-4.744,1.7-1.63,3.3-3.166,3.32-5.372a5.114,5.114,0,0,0-1.71-3.7,8.577,8.577,0,0,0-6.33-2.361A25.68,25.68,0,0,0,2342.41,283Zm10.51,4.747a9.367,9.367,0,0,1-1.95,2.209c-1.68,1.61-3.77,3.615-4.75,6.558-1.1,3.3-4.82,3.467-5.55,3.467a4.22,4.22,0,0,1-2.28-.5c-2.18-2.181-6.06-4.127-10.18-6.185-0.01,0-.01-0.007-0.02-0.011a2.466,2.466,0,0,1,1.87.156,4.875,4.875,0,0,0,2.19.544c2.47,0,4.03-1.9,5.4-3.583,1-1.224,2.04-2.493,3-2.493a11.88,11.88,0,0,0,2.98-.626,21.9,21.9,0,0,1,5.7-1.082,4.272,4.272,0,0,1,3.18,1.055A3.558,3.558,0,0,1,2352.92,287.744Zm20.12-13.928a2.226,2.226,0,1,0-4.41.611,54.118,54.118,0,0,1,.51,7.411,53.533,53.533,0,0,1-52.8,53.506c-7.92-5.063-15.34-11.266-12.03-18.989,5.93-13.875.41-19.045-1.95-21.257l-0.44-.422a10.746,10.746,0,0,0-2.11-1.536c-1.63-.979-2.07-1.242-1.19-3.87a8.359,8.359,0,0,1,2.23-3.5c2.06-2.181,3.64-4.35,3.64-10.656a8.406,8.406,0,0,0-5.1-8.031c-3.68-1.627-8.59-1.052-11.19,1.307a5.051,5.051,0,0,0-1.49,5.507c1.59,4.76-2.04,11.641-8.82,16.731-1.79,1.347-2.33.729-2.65,0.361-1.99-2.294-1.83-8.82-.2-10.452a3.312,3.312,0,0,0,.87-3.739c-1.81-4.1-13.31-3.779-15.59-3.672a2.225,2.225,0,0,0-2.11,1.955,51.508,51.508,0,0,0-.41,6.76,57.821,57.821,0,0,0,43.97,56.278,2.227,2.227,0,0,0,1.06-4.327,53.372,53.372,0,0,1-40.57-51.951c0-1.547.05-2.914,0.17-4.308a33.181,33.181,0,0,1,8.6.932c-2.56,3.994-2.27,11.844.85,15.447,2.23,2.582,5.48,2.689,8.68.283,8.56-6.423,12.63-14.947,10.37-21.707a0.631,0.631,0,0,1,.27-0.8c1.17-1.065,4.15-1.516,6.38-.526a3.922,3.922,0,0,1,2.45,3.953c0,5.033-1.01,6.107-2.41,7.592a12.674,12.674,0,0,0-3.23,5.158c-2,6.022,1.21,7.952,3.13,9.105a7.379,7.379,0,0,1,1.25.863c0.16,0.163.34,0.337,0.55,0.526,1.96,1.833,5.6,5.247.89,16.241-5.33,12.466,8.43,21.157,14.3,24.869a2.257,2.257,0,0,0,1.19.343A58.022,58.022,0,0,0,2373.04,273.816Zm-20.13,58.119a61.765,61.765,0,0,1-37.21,12.332,62.459,62.459,0,0,1-62.35-62.429,2.225,2.225,0,1,0-4.45,0,66.917,66.917,0,0,0,64.57,66.833v6.744a2.23,2.23,0,1,0,4.46,0v-6.778a66.073,66.073,0,0,0,37.64-13.126A2.228,2.228,0,1,0,2352.91,331.935Zm-35.51-17.73c-2.78,0-6.04,3.2-7.23,6.076-0.92,2.245-.65,4.339.76,5.752a8.043,8.043,0,0,0,10.83,0c1.48-1.48,1.84-3.657,1.02-6.125a12.837,12.837,0,0,0-2.94-4.718A3.423,3.423,0,0,0,2317.4,314.205Zm1.21,8.673a3.894,3.894,0,0,1-4.52.025,2.715,2.715,0,0,1,.56-1.63,7.421,7.421,0,0,1,2.45-2.484,8.061,8.061,0,0,1,1.45,2.529A1.815,1.815,0,0,1,2318.61,322.878Z" transform="translate(-0.063 -154.031)"/>
    </g>
  </g>
</svg>
